<svg width="27" height="24" viewBox="0 0 27 24" fill="none" xmlns="http://www.w3.org/2000/svg">
<path d="M0.142578 16.673C0.142578 19.5261 2.68628 21.6743 5.83045 21.6743C8.96455 21.6743 11.4983 19.5261 11.4983 16.673V5.6424C11.4983 3.69575 10.1957 2.41064 8.18934 2.41064C6.6067 2.41064 5.35977 3.21924 4.75569 4.64437L0.647623 14.3169C0.257488 15.2278 0.142578 15.947 0.142578 16.673ZM3.55352 12.1805L6.46708 5.33182C6.77424 4.60599 7.38315 4.18814 8.11642 4.18814C9.05644 4.18814 9.67075 4.81171 9.67075 5.74706V13.0899C8.697 12.204 7.30622 11.6736 5.83045 11.6736C5.04676 11.6736 4.2466 11.8585 3.55352 12.1805ZM2.04141 16.673C2.04141 14.7824 3.66884 13.5003 5.83045 13.5003C7.98383 13.5003 9.66252 14.7824 9.66252 16.673C9.66252 18.5618 7.98383 19.8457 5.83045 19.8457C3.66884 19.8457 2.04141 18.5618 2.04141 16.673ZM26.1698 16.6784C26.1698 15.9506 26.0467 15.2314 25.6583 14.3224L21.5567 4.64798C20.9444 3.22286 19.7076 2.41426 18.1231 2.41426C16.1168 2.41426 14.8142 3.70118 14.8142 5.64782V16.6784C14.8142 19.5315 17.3478 21.6779 20.482 21.6779C23.6179 21.6779 26.1698 19.5315 26.1698 16.6784ZM22.7589 12.1841C22.0658 11.8621 21.2657 11.6773 20.482 11.6773C19.0062 11.6773 17.6072 12.2094 16.6335 13.0935V5.75249C16.6335 4.81532 17.256 4.19174 18.196 4.19174C18.921 4.19174 19.5317 4.60961 19.8371 5.33544L22.7589 12.1841ZM24.2627 16.6784C24.2627 18.5654 22.6354 19.8493 20.482 19.8493C18.3203 19.8493 16.65 18.5654 16.65 16.6784C16.65 14.7878 18.3203 13.5039 20.482 13.5039C22.6354 13.5039 24.2627 14.7878 24.2627 16.6784ZM10.9012 14.5341C11.4784 14.2004 12.297 13.9865 13.1612 13.9865C14.1966 13.9865 14.8927 14.1409 15.458 14.5159V12.8438C14.815 12.5861 14.0558 12.4663 13.1612 12.4663C12.3618 12.4663 11.5808 12.6208 10.9012 12.8905V14.5341ZM10.9012 11.456C11.4784 11.1141 12.297 10.9084 13.1612 10.9084C14.1966 10.9084 14.8927 11.0546 15.458 11.4378V9.76754C14.815 9.50979 14.0558 9.39006 13.1612 9.39006C12.3618 9.39006 11.5808 9.54455 10.9012 9.81415V11.456ZM10.9012 8.3643C11.4784 8.03061 12.297 7.81666 13.1612 7.81666C14.1966 7.81666 14.8927 7.97295 15.458 8.34602V6.68403C14.815 6.42629 14.0558 6.29832 13.1612 6.29832C12.3618 6.29832 11.5808 6.46286 10.9012 6.72884V8.3643Z" fill="#FFCC01"/>
</svg>
