<svg width="65" height="60" viewBox="0 0 65 60" fill="none" xmlns="http://www.w3.org/2000/svg">
<path d="M63.9206 23.925C63.5084 22.6583 62.2566 18.8582 43.983 17.9513C39.4184 6.0337 35.5958 0 32.6201 0H31.8406C28.8575 0 25.0349 6.04119 20.4777 17.9513C2.21161 18.8507 0.959898 22.6583 0.547655 23.925C0.210366 24.9594 -0.68906 27.6877 13.8893 39.0431C9.6245 56.7246 12.6301 58.7183 13.6345 59.3854C14.2491 59.7977 15.0586 60 16.0405 60C20.028 60 26.9237 56.5972 32.2379 53.5841C37.5596 56.5972 44.4477 60 48.4353 60C49.4171 60 50.2267 59.7902 50.8413 59.3854C51.8381 58.7258 54.8513 56.7246 50.579 39.0431C65.1574 27.6877 64.2654 24.9594 63.9206 23.925ZM48.3003 37.4916C47.8881 37.8064 47.7007 38.3385 47.8281 38.8482C51.0886 52.025 50.2716 56.6196 49.3872 57.2043C49.3047 57.2567 49.0499 57.3841 48.4353 57.3841C45.6845 57.3841 40.018 55.0381 32.89 50.9457C32.6876 50.8333 32.4627 50.7733 32.2379 50.7733C32.013 50.7733 31.7882 50.8333 31.5858 50.9457C24.4577 55.0381 18.7913 57.3841 16.0405 57.3841C15.4259 57.3841 15.1635 57.2567 15.0886 57.2043C14.2041 56.6196 13.3871 52.025 16.6476 38.8482C16.775 38.346 16.5876 37.8139 16.1754 37.4916C5.36715 29.1493 3.04361 25.4091 3.04361 24.7421C3.56828 23.1456 8.71006 21.0844 21.4596 20.5372C21.9843 20.5147 22.4415 20.1774 22.6289 19.6902C27.8081 5.97379 31.1061 2.69082 31.8481 2.62336H32.6276C33.3772 2.69082 36.6751 5.97379 41.8469 19.6902C42.0343 20.1849 42.4915 20.5147 43.0162 20.5372C55.7732 21.0844 60.9075 23.1455 61.4172 24.682C61.4321 25.4166 59.1086 29.1568 48.3003 37.4991V37.4916Z" fill="#332D17"/>
<path d="M32.2308 15.7188C30.1321 15.7188 28.4307 17.4276 28.4307 19.5188C28.4307 21.61 30.1396 23.319 32.2308 23.319C34.322 23.319 36.0309 21.61 36.0309 19.5188C36.0309 17.4276 34.322 15.7188 32.2308 15.7188ZM32.2308 20.7032C31.5787 20.7032 31.054 20.1709 31.054 19.5263C31.054 18.8817 31.5862 18.3496 32.2308 18.3496C32.8754 18.3496 33.4076 18.8817 33.4076 19.5263C33.4076 20.1709 32.8754 20.7032 32.2308 20.7032Z" fill="#332D17"/>
<path d="M32.2305 13.3575C33.5422 13.3575 34.6065 12.2932 34.6065 10.9815C34.6065 9.66984 33.5422 8.60547 32.2305 8.60547C30.9188 8.60547 29.8545 9.66984 29.8545 10.9815C29.8545 12.2932 30.9188 13.3575 32.2305 13.3575ZM32.2305 10.7341C32.3654 10.7341 32.4779 10.8466 32.4779 10.9815C32.4779 11.1164 32.3654 11.2288 32.2305 11.2288C32.0956 11.2288 31.9832 11.1164 31.9832 10.9815C31.9832 10.8466 32.0956 10.7341 32.2305 10.7341Z" fill="#332D17"/>
<path d="M25.4689 42.0946C24.8618 41.7199 24.1722 41.5176 23.4601 41.5176C22.141 41.5176 20.9342 42.1847 20.2296 43.309C19.1203 45.0854 19.6675 47.4389 21.4439 48.5482C22.051 48.923 22.7406 49.1253 23.4526 49.1253C24.7718 49.1253 25.9785 48.4583 26.6831 47.334C27.7924 45.5576 27.2453 43.2039 25.4689 42.0946ZM24.457 45.9472C24.1272 46.4794 23.3702 46.6593 22.8305 46.322C22.2758 45.9772 22.111 45.2502 22.4557 44.6956C22.6731 44.3508 23.0479 44.1409 23.4601 44.1409C23.6775 44.1409 23.8948 44.2009 24.0822 44.3208C24.6369 44.6656 24.8018 45.3926 24.457 45.9472Z" fill="#332D17"/>
<path d="M20.2005 50.5492C19.8258 50.3169 19.391 50.1895 18.9413 50.1895C18.1168 50.1895 17.3598 50.6092 16.9176 51.3138C16.2205 52.4306 16.5653 53.8996 17.6746 54.5892C18.0494 54.8291 18.4916 54.949 18.9338 54.949C19.7583 54.949 20.5153 54.5292 20.9501 53.8322C21.2873 53.2925 21.3923 52.6554 21.2499 52.0333C21.1075 51.4112 20.7327 50.8865 20.193 50.5492H20.2005ZM19.1512 52.7004C19.0987 52.7828 18.9338 52.8503 18.8139 52.7753C18.7614 52.7378 18.7165 52.6854 18.7015 52.6254C18.6865 52.5655 18.7014 52.498 18.7314 52.438C18.7689 52.3856 18.8364 52.3256 18.9413 52.3256C18.9863 52.3256 19.0312 52.3406 19.0687 52.3631C19.1812 52.4381 19.2187 52.5879 19.1437 52.7004H19.1512Z" fill="#332D17"/>
<path d="M44.7028 46.1796C44.9352 45.1903 44.7628 44.1709 44.2231 43.309C43.5261 42.1847 42.3193 41.5176 40.9926 41.5176C40.2806 41.5176 39.5835 41.7199 38.9839 42.0946C37.2075 43.2039 36.6603 45.5576 37.7697 47.334C38.4667 48.4583 39.6735 49.1253 41.0001 49.1253C41.7122 49.1253 42.4093 48.923 43.0089 48.5482C43.8708 48.0085 44.4705 47.169 44.7028 46.1796ZM42.1469 45.5875C42.0795 45.8948 41.8921 46.1571 41.6223 46.322C41.0826 46.6593 40.3331 46.4794 39.9958 45.9472C39.651 45.3926 39.8234 44.6656 40.3706 44.3208C40.5579 44.2009 40.7753 44.1409 40.9926 44.1409C41.4049 44.1409 41.7797 44.3508 41.997 44.6956C42.1619 44.9654 42.2144 45.2802 42.1469 45.5875Z" fill="#332D17"/>
<path d="M45.5195 50.1895C45.0773 50.1895 44.6426 50.3169 44.2603 50.5492C43.7207 50.8865 43.3459 51.4112 43.2035 52.0333C43.061 52.6554 43.166 53.2925 43.5033 53.8322C43.938 54.5367 44.695 54.949 45.5195 54.9565C45.9618 54.9565 46.3965 54.8291 46.7787 54.5967C47.888 53.8996 48.2328 52.4306 47.5358 51.3213C47.101 50.6167 46.344 50.2045 45.512 50.2045L45.5195 50.1895ZM45.6469 52.7753C45.527 52.8503 45.3621 52.7753 45.3096 52.7004C45.2422 52.5879 45.2722 52.4381 45.3846 52.3631C45.4221 52.3406 45.4671 52.3256 45.5195 52.3256C45.617 52.3256 45.6919 52.3856 45.7219 52.438C45.7593 52.4905 45.7669 52.558 45.7519 52.6254C45.7369 52.6854 45.6994 52.7453 45.6394 52.7753H45.6469Z" fill="#332D17"/>
<path d="M45.0253 23.6552C42.9416 23.895 41.4426 25.7838 41.6824 27.8675C41.9073 29.7863 43.5263 31.2329 45.4601 31.2329C45.6025 31.2329 45.7524 31.2255 45.8948 31.2105C47.9785 30.9707 49.4775 29.0818 49.2377 26.9981C48.9978 24.9369 47.139 23.4078 45.0253 23.6552ZM45.595 28.6021C44.9429 28.677 44.3657 28.2049 44.2908 27.5678C44.2158 26.9232 44.6805 26.3385 45.3251 26.2635C45.3701 26.2635 45.4151 26.2561 45.4601 26.2561C46.0597 26.2561 46.5619 26.7058 46.6293 27.2979C46.7043 27.9425 46.2396 28.5271 45.595 28.6021Z" fill="#332D17"/>
<path d="M53.667 24.0895C53.0374 24.1644 52.4678 24.4792 52.078 24.9739C51.6808 25.4685 51.5083 26.0907 51.5758 26.7203C51.7107 27.9196 52.7301 28.8265 53.9368 28.8265C54.0268 28.8265 54.1167 28.8264 54.2067 28.8115C54.8363 28.7365 55.4059 28.4217 55.7957 27.9271C56.1929 27.4324 56.3653 26.8102 56.2979 26.1731C56.148 24.8839 54.9787 23.932 53.6595 24.082L53.667 24.0895ZM54.1317 26.6079C54.0942 26.6603 54.0343 26.6903 53.9443 26.6978C53.8169 26.6978 53.712 26.6078 53.697 26.4804C53.6895 26.413 53.7045 26.353 53.7495 26.3005C53.7869 26.2481 53.8469 26.2181 53.9143 26.2106H53.9443C54.0718 26.2106 54.1767 26.3006 54.1917 26.428C54.1917 26.4955 54.1767 26.5554 54.1392 26.6079H54.1317Z" fill="#332D17"/>
<path d="M19.0011 31.2329C20.9349 31.2329 22.5539 29.7863 22.7787 27.8675C22.8987 26.8557 22.6138 25.8663 21.9767 25.0718C21.3471 24.2773 20.4402 23.7751 19.4358 23.6552C17.3221 23.4078 15.4633 24.9369 15.2234 26.9981C14.9836 29.0818 16.4827 30.9707 18.5664 31.2105C18.7163 31.2255 18.8587 31.2329 19.0011 31.2329ZM17.8243 27.2979C17.8918 26.7058 18.394 26.2561 18.9936 26.2561C19.0386 26.2561 19.0836 26.256 19.1285 26.2635C19.4433 26.301 19.7206 26.4585 19.9155 26.6983C20.1104 26.9457 20.2004 27.253 20.1629 27.5678C20.0879 28.2124 19.4958 28.677 18.8587 28.6021C18.2141 28.5271 17.7494 27.9425 17.8243 27.2979Z" fill="#332D17"/>
<path d="M10.7859 24.0898C9.45919 23.9399 8.29742 24.8917 8.14752 26.1809C8.07256 26.8105 8.25244 27.4327 8.64969 27.9349C9.04694 28.4296 9.60911 28.7443 10.2387 28.8193C10.3287 28.8268 10.4186 28.8343 10.5085 28.8343C11.7153 28.8343 12.7347 27.9273 12.8696 26.728C13.0195 25.4239 12.0825 24.2472 10.7784 24.0973L10.7859 24.0898ZM10.4861 26.6981C10.3511 26.6831 10.2537 26.5632 10.2687 26.4283C10.2837 26.3084 10.3886 26.2109 10.516 26.2109H10.546C10.606 26.2184 10.6734 26.2559 10.7109 26.3008C10.7484 26.3533 10.7709 26.4133 10.7634 26.4807C10.7484 26.6007 10.6435 26.6981 10.4936 26.6981H10.4861Z" fill="#332D17"/>
</svg>
