<svg width="61" height="60" viewBox="0 0 61 60" fill="none" xmlns="http://www.w3.org/2000/svg">
<path d="M14.5769 38.9052C16.7487 40.0242 19.5536 39.4647 21.6003 39.0524L21.8947 38.9935C28.1156 37.7641 34.1377 35.4304 39.777 33.1481C40.8592 32.7138 41.7868 32.3236 42.626 31.9629C42.6039 32.6991 42.5671 33.4279 42.5082 34.1641L42.4862 34.488C42.4346 35.2169 42.3978 35.9457 42.2285 36.5641C42.0739 37.1383 41.8236 37.5801 41.6322 37.8009C41.0432 38.5003 40.0199 38.9273 38.6064 39.0745C36.8469 39.2586 34.8223 39.0451 32.7536 38.4561C32.069 38.2647 31.3549 38.6622 31.1635 39.3469C30.972 40.0316 31.3696 40.7457 32.0542 40.9371C33.8727 41.4525 35.6763 41.7175 37.3475 41.7175C37.8702 41.7175 38.3782 41.6954 38.8714 41.6438C40.9696 41.423 42.5598 40.6941 43.5904 39.472C44.069 38.9052 55.745 20.6254 57.0039 11.4966C57.0628 11.3641 57.1585 10.0463 57.1438 9.56776C57.1438 8.54445 57.0113 7.61685 56.7021 6.81439C56.7021 6.81439 56.6947 6.79969 56.6874 6.79233C55.3843 2.47086 51.6003 0.541999 49.3181 0.0487471C48.3168 -0.16475 47.8309 0.350584 47.8015 1.05733C47.772 1.85242 48.7512 2.19844 49.4285 3.13341C51.2542 5.63648 48.9941 10.7089 47.4849 14.0733C46.7561 15.6929 46.1819 16.9739 46.0346 17.9236C45.5782 20.8095 48.1769 24.0414 49.0825 25.0574C47.7868 27.5015 46.4248 29.8573 45.1733 31.904C45.269 28.6132 45.0996 25.2929 44.6358 21.9948C44.0837 18.0487 43.3181 13.9776 40.7046 11.2757C39.0481 9.56777 36.3684 8.52973 34.1819 8.75059C32.842 8.88311 31.8481 9.5236 30.9647 10.0831C30.6113 10.304 30.28 10.5175 29.9414 10.6942C29.0727 11.1432 28.0714 10.9297 26.6947 10.0242C24.7954 8.7653 22.9107 8.44877 20.945 9.04509C16.2628 10.4659 14.6874 14.5665 13.8334 17.9825C12.9131 21.6708 12.4788 25.8524 12.5082 30.7555C12.523 32.8169 12.6113 34.5101 12.8027 36.0782C12.8763 36.6966 13.053 38.1396 14.5622 38.9126L14.5769 38.9052ZM52.6825 4.78248C53.3303 5.47451 53.8972 6.35059 54.2506 7.50642C54.2506 7.51378 54.2506 7.52849 54.2579 7.53585C54.5156 8.40456 54.6334 9.42791 54.5745 10.6132C54.523 11.1948 54.4199 11.8058 54.2727 12.461L51.9389 9.95796C52.4984 8.20582 52.8371 6.4242 52.6898 4.78248H52.6825ZM50.9303 12.6524L53.4481 15.3469C53.2714 15.877 53.0727 16.4144 52.8592 16.9592L50.3561 14.3236C50.3561 14.3236 50.2825 14.2647 50.2457 14.2279C50.4739 13.7126 50.7021 13.1898 50.9303 12.6451V12.6524ZM48.5966 18.3138C48.6481 17.9751 48.8543 17.423 49.1266 16.7752L51.777 19.5653C51.3426 20.5518 50.8714 21.5457 50.3782 22.5395C49.48 21.3543 48.3978 19.58 48.5966 18.3138ZM16.3512 18.5935C17.3966 14.3899 18.95 12.3359 21.7107 11.4966C22.1082 11.3788 22.4837 11.3125 22.8592 11.3125C23.6542 11.3125 24.4273 11.585 25.2886 12.1592C26.0911 12.6892 28.5352 14.3089 31.134 12.9764C31.5831 12.7481 31.9806 12.4905 32.3635 12.2475C33.0923 11.7837 33.7254 11.3788 34.4542 11.3052C35.8383 11.1727 37.7819 11.9383 38.8714 13.0573C40.9475 15.1997 41.6027 18.8218 42.1033 22.3408C42.4199 24.6083 42.6039 26.8831 42.6481 29.1506C42.6039 29.1653 42.5524 29.1801 42.5082 29.2021C41.4481 29.666 40.2702 30.1592 38.8125 30.7555C33.2911 32.9935 27.4015 35.2758 21.4015 36.461L21.0996 36.5199C19.4211 36.8512 17.1316 37.315 15.7549 36.6083C15.5855 36.5199 15.4604 36.461 15.3794 35.7543C15.3647 35.607 15.35 35.4524 15.3279 35.2978C18.8322 34.6279 22.0125 33.9064 25.0015 33.0892C25.6861 32.9052 26.0911 32.1911 25.907 31.5064C25.723 30.8217 25.0089 30.4168 24.3242 30.6009C21.4898 31.3739 18.4641 32.0659 15.1438 32.7064C15.1217 32.0806 15.0996 31.4328 15.0996 30.726C15.0702 26.0365 15.4825 22.0684 16.3512 18.5862V18.5935Z" fill="#332D17"/>
<path d="M37.3179 29.9385C39.416 29.9385 41.124 28.2305 41.124 26.1323C41.124 24.0341 39.416 22.3262 37.3179 22.3262C35.2197 22.3262 33.5117 24.0341 33.5117 26.1323C33.5117 28.2305 35.2197 29.9385 37.3179 29.9385ZM37.3179 24.9029C37.9952 24.9029 38.5473 25.455 38.5473 26.1323C38.5473 26.8096 37.9952 27.3618 37.3179 27.3618C36.6406 27.3618 36.0884 26.8096 36.0884 26.1323C36.0884 25.455 36.6406 24.9029 37.3179 24.9029Z" fill="#332D17"/>
<path d="M58.7339 35.1138C57.6811 35.1138 57.394 35.85 57.394 35.85V38.4266L57.4235 41.7543C57.4235 42.7628 56.6799 43.58 55.6713 43.58H4.46886C3.46027 43.58 2.64309 42.7628 2.64309 41.7543V38.4266L2.65782 35.85C2.65782 35.85 2.41487 35.0917 1.33266 35.1138C0.346161 35.099 0.0664062 35.85 0.0664062 35.85V41.7543C0.0664062 44.1837 2.03941 46.1567 4.46886 46.1567H55.664C58.0934 46.1567 60.0664 44.1837 60.0664 41.7543V35.85C60.0664 35.85 59.8235 35.1138 58.7265 35.1138H58.7339Z" fill="#332D17"/>
</svg>
