<svg width="61" height="60" viewBox="0 0 61 60" fill="none" xmlns="http://www.w3.org/2000/svg">
<path d="M11.2646 19.1151C11.2779 18.4654 10.769 17.9297 10.1193 17.9163C9.48981 17.9029 8.93393 18.4119 8.92054 19.0615C8.86027 21.8274 9.29559 24.8412 10.2131 28.0089C10.3604 28.5246 10.8292 28.8528 11.3382 28.8528C11.4454 28.8528 11.5592 28.8394 11.6664 28.8059C12.2892 28.6251 12.6442 27.9754 12.4634 27.3526C11.6128 24.4125 11.2043 21.6399 11.2646 19.1084V19.1151Z" fill="#332D17"/>
<path d="M15.6371 6.49594C15.1013 6.86428 14.5522 7.33308 13.9494 7.92244C13.4873 8.37784 13.4806 9.12123 13.936 9.57664C14.1637 9.81104 14.4718 9.92489 14.7732 9.92489C15.0746 9.92489 15.3692 9.81104 15.5969 9.59003C16.1059 9.09444 16.5546 8.7127 16.9766 8.41803C17.5123 8.04968 17.6463 7.31969 17.2779 6.79061C16.9096 6.26153 16.1796 6.1209 15.6505 6.48924L15.6371 6.49594Z" fill="#332D17"/>
<path d="M26.7344 17.916C26.0848 17.9294 25.5758 18.4652 25.5892 19.1148C25.6093 19.9386 25.5758 20.7824 25.5022 21.633C25.4486 22.2759 25.9241 22.8451 26.567 22.9054C26.6005 22.9054 26.634 22.9054 26.6742 22.9054C27.2769 22.9054 27.7859 22.45 27.8395 21.8406C27.9198 20.9097 27.9533 19.972 27.9332 19.0679C27.9198 18.4183 27.3707 17.9026 26.7344 17.9227V17.916Z" fill="#332D17"/>
<path d="M54.5077 9.79801C53.1415 7.12584 50.4158 5.43815 47.3686 5.43815C43.2766 5.43815 39.8878 8.51216 39.3922 12.4702C38.026 12.5037 36.8071 13.1466 35.9968 14.1378C33.3581 7.09905 26.5671 2.07617 18.6176 2.07617C8.391 2.07617 0.0664062 10.4008 0.0664062 20.6273C0.0664062 26.9294 2.6917 30.3249 5.72552 34.2628C6.53588 35.3143 7.37972 36.4059 8.22357 37.6181C9.72373 39.7679 14.2376 48.3202 14.2778 48.4072L14.3515 48.5412C14.2242 48.7287 14.1439 48.9564 14.1439 49.2042V52.9211C14.1439 52.9546 14.1305 52.9881 14.1305 53.0216V55.2116C14.1305 56.705 15.3494 57.9239 16.8428 57.9239H20.1981C21.6916 57.9239 22.9105 56.705 22.9105 55.2116V53.0216C22.9105 52.9613 22.8971 52.901 22.8904 52.8408V49.1975C22.8904 49.0167 22.8502 48.8559 22.7765 48.7019L22.9373 48.4005C22.9841 48.3135 27.4913 39.7612 28.9915 37.6114C29.842 36.3992 30.6792 35.3076 31.4896 34.2561C34.4899 30.365 37.0817 26.9964 37.142 20.8484C37.8251 21.2636 38.622 21.5047 39.4726 21.5047C40.7384 21.5047 41.9238 20.9689 42.7676 20.0715C44.107 21.0024 45.6876 21.5047 47.3418 21.5047C48.6477 21.5047 49.9202 21.1899 51.0654 20.5872C52.003 21.1832 53.0879 21.5047 54.2064 21.5047C57.4344 21.5047 60.0664 18.8794 60.0664 15.6446C60.0664 12.4099 57.5884 9.93865 54.481 9.79132L54.5077 9.79801ZM22.5421 44.1947C21.9796 45.2328 21.5041 46.1302 21.2027 46.6928H16.0258C15.7244 46.1235 15.2422 45.2194 14.6796 44.1746L22.5421 44.1947ZM20.5598 50.3494C20.4459 50.336 20.3321 50.3159 20.2115 50.3159H16.8562C16.7357 50.3159 16.6151 50.336 16.5013 50.3494V49.2042C16.5013 49.1439 16.4946 49.0903 16.4812 49.0368H20.5799C20.5732 49.0903 20.5598 49.1506 20.5598 49.2042V50.3494ZM20.2115 55.5799H16.8562C16.6553 55.5799 16.4879 55.4125 16.4879 55.2116V55.0039C16.4879 54.9705 16.5013 54.937 16.5013 54.8968V52.968C16.5281 52.7939 16.6754 52.6532 16.8562 52.6532H20.2115C20.3856 52.6532 20.5196 52.7738 20.5598 52.9345V54.8968C20.5598 54.9571 20.5665 55.0173 20.5799 55.0776V55.2116C20.5799 55.4125 20.4124 55.5799 20.2115 55.5799ZM29.6545 32.8296C28.8241 33.9011 27.9668 35.0129 27.0895 36.2719C26.3662 37.3033 25.0536 39.6138 23.8213 41.8507H21.5376C22.2207 39.721 23.0578 37.6114 23.8883 35.5553C25.1406 32.4479 26.4399 29.2332 27.2034 25.8578C27.344 25.2283 26.9489 24.5988 26.3193 24.4581C25.6898 24.3175 25.0603 24.7126 24.9196 25.3422C24.1963 28.53 22.9373 31.6576 21.7184 34.678C20.7875 36.9885 19.8231 39.3861 19.0864 41.8306H17.7938C17.0504 39.3727 16.1128 37.0354 15.1953 34.7785C14.7935 33.7806 14.385 32.7894 14.0032 31.7848C13.7688 31.1821 13.0924 30.8807 12.4897 31.1151C11.8869 31.3495 11.5855 32.0259 11.8199 32.6287C12.2151 33.6467 12.6236 34.6579 13.0321 35.6625C13.8425 37.6516 14.6663 39.7076 15.3427 41.8172H13.4273C12.2017 39.5804 10.8957 37.2899 10.1791 36.2653C9.30181 35.0062 8.44457 33.8945 7.61412 32.8229C4.61379 28.9318 2.4439 26.119 2.4439 20.6207C2.4439 11.6866 9.71033 4.41348 18.6511 4.41348C27.5918 4.41348 34.8582 11.6866 34.8582 20.6207C34.8582 26.119 32.6884 28.9318 29.688 32.8229L29.6545 32.8296ZM54.2332 19.1674C53.3893 19.1674 52.5723 18.8593 51.936 18.3034C51.715 18.1159 51.4404 18.0155 51.1659 18.0155C50.9381 18.0155 50.7171 18.0824 50.5162 18.2097C49.5786 18.8325 48.4937 19.1607 47.3686 19.1607C45.8617 19.1607 44.4419 18.578 43.3703 17.5199C43.0958 17.252 42.7073 17.1314 42.3323 17.2051C41.9572 17.2788 41.6358 17.5266 41.4817 17.8748C41.1268 18.6584 40.3499 19.1607 39.4994 19.1607C38.3006 19.1607 37.3228 18.1829 37.3228 16.9841C37.3228 15.7853 38.3006 14.8075 39.4994 14.8075C39.7003 14.8075 39.9079 14.8477 40.1624 14.9281C40.5307 15.0486 40.9326 14.9749 41.2339 14.7405C41.542 14.5061 41.7094 14.1378 41.6894 13.756V13.6154C41.676 13.5685 41.676 13.5149 41.676 13.4681C41.676 10.3271 44.2276 7.77546 47.3686 7.77546C49.7327 7.77546 51.8088 9.20197 52.666 11.4053C52.8602 11.8942 53.3491 12.1956 53.8715 12.1487C53.9854 12.1353 54.1059 12.1286 54.2265 12.1286C56.1619 12.1286 57.7425 13.7092 57.7425 15.6446C57.7425 17.5801 56.1619 19.1607 54.2265 19.1607L54.2332 19.1674Z" fill="#332D17"/>
</svg>
