<svg width="55" height="60" viewBox="0 0 55 60" fill="none" xmlns="http://www.w3.org/2000/svg">
<path d="M53.9405 43.9188C53.6178 42.044 53.2797 40.1078 53.3335 38.4174C53.3335 38.3483 53.3335 38.2791 53.3181 38.2099C53.1875 35.6283 52.4345 28.3213 48.3469 28.3213H43.4142C41.1168 22.1285 38.7426 17.3724 38.5044 16.9114C38.2739 16.4581 37.8129 16.1738 37.3058 16.1738H17.3212C16.8141 16.1738 16.3454 16.4581 16.1226 16.9114C15.8844 17.3801 13.5102 22.1362 11.2128 28.3213H6.34924C2.23091 28.3213 1.47793 35.6437 1.34731 38.2099C1.33962 38.2791 1.33195 38.3483 1.33195 38.4174C1.38573 40.1001 1.04767 42.0363 0.717283 43.9111C0.217859 46.777 -0.304635 49.7351 0.432975 52.3014C1.82368 57.142 7.11757 59.9234 14.9624 59.9234C15.1007 59.9234 16.6297 60.0002 17.3212 60.0002H37.3058C38.0358 60.0002 39.6493 59.9234 39.8106 59.9234C47.6016 59.9234 52.8571 57.142 54.2325 52.3014C54.9624 49.7351 54.4476 46.777 53.9482 43.9188H53.9405ZM48.3469 31.0106C49.1998 31.0106 50.1679 33.8073 50.5213 37.0267H46.1879C45.6501 34.9752 45.0277 32.9468 44.3669 31.0106H48.3469ZM32.2424 42.9583L29.461 40.4612L32.2271 37.9794C32.2578 39.8619 32.2655 41.5446 32.2424 42.9583ZM31.9505 28.7286L29.461 26.4927L31.7584 24.4258C31.8275 25.878 31.889 27.3148 31.9505 28.7286ZM23.3911 18.8553H31.4664C31.5048 19.5545 31.5509 20.2614 31.5893 20.9683L27.4557 24.6794L23.2836 20.9299C23.322 20.2307 23.3604 19.5392 23.3988 18.8477L23.3911 18.8553ZM23.0915 24.3874L25.4349 26.4927L22.8994 28.767C22.9608 27.3302 23.0223 25.8627 23.0915 24.3874ZM22.7687 32.3398C22.9378 32.286 23.1068 32.1938 23.2451 32.0632L27.448 28.2906L31.6508 32.0632C31.7814 32.1784 31.9274 32.2707 32.0888 32.3244C32.1118 33.0928 32.1349 33.8534 32.1579 34.591C31.9735 34.6448 31.8045 34.737 31.6508 34.8753L27.448 38.6479L23.2451 34.8753C23.0838 34.7293 22.8917 34.6371 22.6996 34.5833C22.7227 33.8534 22.7457 33.1005 22.7687 32.3398ZM22.6305 37.9333L25.4349 40.4535L22.6151 42.989C22.592 41.5599 22.5997 39.8465 22.6305 37.9333ZM6.35693 31.0029H10.2678C9.60702 32.9468 8.98466 34.9752 8.44682 37.019H4.15178C4.50522 33.7996 5.4887 31.0029 6.35693 31.0029ZM3.02232 51.5561C2.46142 49.5814 2.89937 47.0536 3.37575 44.3721C3.63698 42.8661 3.9059 41.3217 3.9981 39.8158H7.77837C6.47218 45.9241 6.21094 51.8865 8.56207 55.6975C8.74647 55.9971 8.95393 56.2737 9.16907 56.5503C5.87287 55.6667 3.71383 53.9533 3.02232 51.5638V51.5561ZM43.783 54.2837C42.5306 56.3121 40.4176 57.3033 37.3135 57.3033H17.3289C14.2248 57.3033 12.1041 56.3198 10.8594 54.2837C6.24935 46.7924 14.2555 26.8538 18.1664 18.8477H20.7096C19.05 47.1765 20.4407 48.5903 20.9017 49.0436C21.1629 49.3048 21.5087 49.4355 21.8544 49.4355C22.2002 49.4355 22.5459 49.3048 22.8072 49.0436C23.2759 48.5749 23.3297 47.8373 22.9532 47.3148C22.884 47.1074 22.8225 46.7616 22.7764 46.3006C22.9532 46.2468 23.1145 46.1546 23.2605 46.024L27.4633 42.2514L31.6662 46.024C31.7968 46.1469 31.9505 46.2315 32.1118 46.2852C32.0657 46.7539 32.0042 47.1074 31.9351 47.3148C31.5586 47.8373 31.6124 48.5749 32.0811 49.0436C32.3423 49.3048 32.6881 49.4355 33.0338 49.4355C33.3796 49.4355 33.7253 49.3048 33.9866 49.0436C34.4476 48.5826 35.8383 47.1765 34.1787 18.8477H36.4914C40.4099 26.8538 48.4161 46.7847 43.7983 54.2837H43.783ZM51.6431 51.5561C50.9516 53.9764 48.7695 55.7052 45.4426 56.5734C45.6654 56.2968 45.8806 56.0048 46.0726 55.6898C48.4238 51.8711 48.1625 45.9164 46.8563 39.8081H50.675C50.7672 41.3141 51.0361 42.8584 51.2974 44.3644C51.7661 47.0459 52.204 49.5814 51.6431 51.5561Z" fill="#332D17"/>
<path d="M7.01741 14.8598H37.6436H47.7858C50.3213 14.8598 52.3805 12.8006 52.3805 10.2651V4.59468C52.3805 2.05915 50.3213 0 47.7858 0H7.00975C4.47421 0 2.41504 2.05915 2.41504 4.59468V10.2651C2.41504 12.8006 4.47421 14.8598 7.00975 14.8598H7.01741ZM38.9959 2.6892H47.8011C48.8538 2.6892 49.7066 3.54205 49.7066 4.59468V10.2651C49.7066 11.3177 48.8538 12.1706 47.8011 12.1706H38.9959V2.6892ZM18.6194 2.6892H36.3067V12.1706H18.6194V2.6892ZM5.11193 4.59468C5.11193 3.54205 5.96478 2.6892 7.01741 2.6892H15.9302V12.1706H7.01741C5.96478 12.1706 5.11193 11.3177 5.11193 10.2651V4.59468Z" fill="#332D17"/>
<path d="M23.2374 50.6094C22.1848 50.6094 21.3242 51.4622 21.3242 52.5225C21.3242 53.5829 22.1771 54.4357 23.2374 54.4357C24.2977 54.4357 25.1506 53.5752 25.1506 52.5225C25.1506 51.4699 24.2977 50.6094 23.2374 50.6094Z" fill="#332D17"/>
</svg>
