<svg width="61" height="60" viewBox="0 0 61 60" fill="none" xmlns="http://www.w3.org/2000/svg">
<path d="M58.0274 50.5469H2.10628C1.38428 50.5469 0.803711 51.1274 0.803711 51.8494C0.803711 52.5714 1.38428 53.152 2.10628 53.152H58.0274C58.7494 53.152 59.33 52.5714 59.33 51.8494C59.33 51.1274 58.7494 50.5469 58.0274 50.5469Z" fill="#332D17"/>
<path d="M33.5834 8.00149C34.3649 7.15296 34.8413 6.02153 34.8413 4.77851C34.8413 2.1436 32.6976 0 30.0627 0C27.4278 0 25.2841 2.1436 25.2841 4.77851C25.2841 6.02153 25.7679 7.15296 26.542 8.00149C11.6555 9.75065 0.0664062 22.434 0.0664062 37.7819C0.0664062 38.1839 0.0812764 38.5858 0.0961629 38.9803C0.125936 39.6799 0.699066 40.2307 1.39873 40.2307H28.7601V44.0565C28.7601 44.1905 28.7899 44.3171 28.8271 44.4361H2.10585C1.38385 44.4361 0.80328 45.0167 0.80328 45.7387C0.80328 46.4607 1.38385 47.0413 2.10585 47.0413H58.027C58.749 47.0413 59.3295 46.4607 59.3295 45.7387C59.3295 45.0167 58.749 44.4361 58.027 44.4361H31.3057C31.343 44.3171 31.3727 44.1905 31.3727 44.0565V40.2307H58.7341C59.4338 40.2307 60.0069 39.6799 60.0367 38.9803C60.0515 38.5858 60.0664 38.1839 60.0664 37.7819C60.0664 22.434 48.4773 9.75065 33.5908 8.00149H33.5834ZM30.0701 2.60514C31.2685 2.60514 32.2435 3.58014 32.2435 4.77851C32.2435 5.97687 31.2685 6.95197 30.0701 6.95197C28.8718 6.95197 27.8967 5.97687 27.8967 4.77851C27.8967 3.58014 28.8718 2.60514 30.0701 2.60514ZM2.67899 37.6256C2.76087 22.5976 15.0199 10.3907 30.0701 10.3907C45.1204 10.3907 57.3794 22.5902 57.4613 37.6256H2.68644H2.67899Z" fill="#332D17"/>
<path d="M26.9074 15.5476C10.9714 19.0385 8.82028 32.8904 8.79795 33.0318C8.69374 33.7464 9.19248 34.4014 9.90703 34.5056C9.96658 34.513 10.0336 34.5205 10.0931 34.5205C10.7332 34.5205 11.2915 34.0515 11.3808 33.404C11.3957 33.2849 13.2788 21.2045 27.4656 18.1006C28.1653 17.9443 28.6119 17.2521 28.463 16.5525C28.3067 15.8528 27.6219 15.4061 26.9148 15.5624L26.9074 15.5476Z" fill="#332D17"/>
</svg>
