<svg width="61" height="38" viewBox="0 0 61 38" fill="none" xmlns="http://www.w3.org/2000/svg">
<path d="M22.1601 33.3386C10.0374 39.063 2.37337 30.958 2.0333 30.5928C1.62396 30.1457 0.92492 30.1079 0.477797 30.5172C0.0243764 30.9266 -0.007108 31.6256 0.40223 32.0728C0.471503 32.1483 5.5095 37.5516 13.7781 37.5516C16.5427 37.5516 19.6789 36.947 23.0985 35.3285C32.4251 30.9266 41.2416 33.2 44.0251 36.5377C44.4155 37.0037 45.1083 37.0666 45.5743 36.6762C46.0403 36.2858 46.1033 35.5931 45.7128 35.127C42.5956 31.3863 32.9541 28.2313 22.1539 33.3323L22.1601 33.3386Z" fill="#332D17"/>
<path d="M56.9036 22.1611V19.6169C58.7425 19.1698 60.1153 17.5073 60.1153 15.5299C60.1153 13.5524 58.7425 11.8899 56.9036 11.4428V8.55846C58.478 7.93501 59.5423 6.41734 59.5423 4.65404C59.5423 2.33026 57.653 0.447266 55.3355 0.447266C53.3959 0.447266 51.7585 1.76348 51.2736 3.55197H49.0947C48.6098 1.76348 46.9724 0.447266 45.0328 0.447266C43.0931 0.447266 41.4558 1.76348 40.9709 3.55197H38.792C38.3071 1.76348 36.6697 0.447266 34.7301 0.447266C32.7904 0.447266 31.1531 1.76348 30.6682 3.55197H28.4892C28.0043 1.76348 26.367 0.447266 24.4273 0.447266C22.1036 0.447266 20.2206 2.33655 20.2206 4.65404C20.2206 6.63775 21.5998 8.3003 23.4449 8.74742V11.4428C21.5998 11.8899 20.2206 13.5524 20.2206 15.5362C20.2206 17.5199 21.5998 19.1824 23.4449 19.6295V20.297C23.023 20.4734 22.601 20.656 22.1728 20.8575C10.0375 26.5883 2.36713 18.4582 2.04596 18.1055C1.63662 17.6584 0.937616 17.6269 0.490493 18.0362C0.0370717 18.4456 0.00558732 19.1446 0.414926 19.5917C0.484198 19.6673 5.5222 25.0706 13.7908 25.0706C15.9572 25.0706 18.3502 24.6927 20.9322 23.7544C20.4914 24.4219 20.2206 25.2091 20.2206 26.0656C20.2206 28.3894 22.1099 30.2723 24.4273 30.2723C26.3103 30.2723 27.9162 29.038 28.4452 27.3125H30.7122C31.2412 29.038 32.8471 30.2723 34.7301 30.2723C36.613 30.2723 38.2189 29.038 38.7479 27.3125H41.015C41.5439 29.038 43.1498 30.2723 45.0328 30.2723C46.9157 30.2723 48.5216 29.038 49.0506 27.3125H51.3177C51.8467 29.038 53.4526 30.2723 55.3355 30.2723C57.6593 30.2723 59.5423 28.3831 59.5423 26.0656C59.5423 24.3338 58.4591 22.7972 56.9036 22.1675V22.1611ZM55.3292 28.0682C54.2586 28.0682 53.377 27.2306 53.3329 26.1601C53.3077 25.5744 52.8228 25.1083 52.2308 25.1083H48.1249C47.5392 25.1083 47.0543 25.5681 47.0228 26.1601C46.9724 27.2306 46.097 28.0682 45.0265 28.0682C43.9559 28.0682 43.0743 27.2306 43.0302 26.1601C43.005 25.5744 42.5201 25.1083 41.9281 25.1083H37.8221C37.2365 25.1083 36.7515 25.5681 36.7201 26.1601C36.6697 27.2306 35.7943 28.0682 34.7238 28.0682C33.6532 28.0682 32.7715 27.2306 32.7275 26.1601C32.7023 25.5744 32.2174 25.1083 31.6254 25.1083H27.5194C26.9274 25.1083 26.4488 25.5681 26.4173 26.1601C26.367 27.2306 25.4916 28.0682 24.421 28.0682C23.3505 28.0682 22.4184 27.1676 22.4184 26.0656C22.4184 24.9635 23.319 24.0629 24.421 24.0629C24.421 24.0629 24.484 24.0629 24.4966 24.0629C24.7989 24.0755 25.0886 23.9622 25.3027 23.7544C25.5168 23.5465 25.6428 23.2569 25.6428 22.9609V21.8021C33.9933 18.8675 41.5062 21.0213 44.0315 24.0567C44.4219 24.5227 45.1146 24.5857 45.5807 24.1952C46.0467 23.8048 46.1097 23.112 45.7192 22.646C42.942 19.3146 34.982 16.4493 25.6364 19.4784V18.6345C25.6364 18.3322 25.5168 18.0488 25.2964 17.841C25.0823 17.6332 24.7863 17.5135 24.4903 17.5324C24.4777 17.5324 24.4273 17.5324 24.421 17.5324C23.3127 17.5324 22.4184 16.6319 22.4184 15.5299C22.4184 14.4278 23.319 13.5272 24.4273 13.5272C24.4336 13.5272 24.484 13.5272 24.4903 13.5272C24.7863 13.5335 25.0823 13.4265 25.2964 13.2186C25.5105 13.0108 25.6364 12.7211 25.6364 12.4251V7.75244C25.6364 7.45646 25.5168 7.16677 25.3027 6.95895C25.0949 6.75743 24.8241 6.65038 24.5344 6.65038C24.5092 6.65038 24.4462 6.65038 24.421 6.65038C23.3127 6.65038 22.4184 5.7498 22.4184 4.64773C22.4184 3.54567 23.319 2.64517 24.421 2.64517C25.5231 2.64517 26.4236 3.54567 26.4236 4.64773C26.4236 5.25859 26.9148 5.7498 27.5257 5.7498H31.6128C32.2236 5.7498 32.7148 5.25859 32.7148 4.64773C32.7148 3.53937 33.6154 2.64517 34.7174 2.64517C35.8195 2.64517 36.7201 3.54567 36.7201 4.64773C36.7201 5.25859 37.2113 5.7498 37.8221 5.7498H41.9092C42.5201 5.7498 43.0113 5.25859 43.0113 4.64773C43.0113 3.53937 43.9118 2.64517 45.0202 2.64517C46.1286 2.64517 47.0228 3.54567 47.0228 4.64773C47.0228 5.25859 47.514 5.7498 48.1249 5.7498H52.2183C52.8291 5.7498 53.3203 5.25859 53.3203 4.64773C53.3203 3.53937 54.2209 2.64517 55.3229 2.64517C56.425 2.64517 57.3255 3.54567 57.3255 4.64773C57.3255 5.63015 56.595 6.48032 55.6252 6.62516C55.0899 6.70703 54.6869 7.17303 54.6869 7.71462V12.4188C54.6869 12.7148 54.8065 12.9982 55.0207 13.206C55.2348 13.4138 55.5244 13.5209 55.8204 13.5209H55.896C57.0043 13.5209 57.8986 14.4152 57.8986 15.5235C57.8986 16.6319 56.9981 17.5261 55.9149 17.5261C55.9023 17.5261 55.8456 17.5261 55.833 17.5261C55.5307 17.5135 55.241 17.6269 55.0269 17.8348C54.8128 18.0426 54.6869 18.3259 54.6869 18.6282V22.9924C54.6869 23.534 55.0836 24 55.6252 24.0818C56.595 24.2267 57.3255 25.0769 57.3255 26.0593C57.3255 27.1676 56.425 28.0619 55.3229 28.0619L55.3292 28.0682Z" fill="#332D17"/>
</svg>
