<svg width="61" height="60" viewBox="0 0 61 60" fill="none" xmlns="http://www.w3.org/2000/svg">
<path d="M3.00559 50.3251L6.76259 46.5681L10.6109 50.4796C10.6952 50.5639 10.7864 50.6271 10.8848 50.6833L11.7766 48.1552L7.65444 43.9628C7.4227 43.7311 7.11371 43.5977 6.78366 43.5977C6.47467 43.6257 6.14462 43.724 5.91288 43.9558L1.27807 48.5906C0.80054 49.0681 0.80054 49.8476 1.27807 50.3251C1.75559 50.8027 2.53508 50.8027 3.01261 50.3251H3.00559Z" fill="#332D17"/>
<path d="M49.6907 26.0766C49.5152 25.592 49.0517 25.262 48.532 25.262C48.0124 25.262 47.5489 25.585 47.3733 26.0766L43.1809 37.7268L36.3762 18.8224C36.2006 18.3308 35.7371 18.0078 35.2175 18.0078C34.6978 18.0078 34.2343 18.3308 34.0588 18.8224L27.1768 37.9515L22.9071 26.0906C22.7316 25.5991 22.2681 25.276 21.7484 25.276C21.2288 25.276 20.7653 25.5991 20.5897 26.0906L12.4086 48.8293L10.4493 54.3279C10.4493 54.3279 8.45496 54.3559 7.90018 54.3559V52.4107L9.6277 54.1663L10.5336 51.5891L7.61929 48.6257C7.38754 48.3939 7.07856 48.2605 6.7485 48.2605C6.43952 48.2675 6.10946 48.3869 5.87772 48.6186L1.24291 53.2534C0.765384 53.731 0.765384 54.5105 1.24291 54.988C1.72044 55.4655 2.49993 55.4655 2.97745 54.988L5.43531 52.5301V55.5427C5.43531 55.5427 5.43531 55.5849 5.43531 55.6059C5.43531 56.2801 5.99008 56.8208 6.66423 56.8208H6.67828C8.11086 56.8068 9.54343 56.7998 10.983 56.7857C14.5364 56.7576 18.0897 56.7366 21.6501 56.7225C25.3509 56.7085 29.0377 56.7014 32.7245 56.7085C34.3537 56.7085 35.9829 56.7085 37.6121 56.7155C41.2919 56.7295 44.9646 56.7506 48.6093 56.7787C48.5531 56.7927 48.4969 56.7998 48.4407 56.8068H58.9814C59.3817 56.8068 59.7539 56.6101 59.9856 56.2871C60.2174 55.9571 60.2735 55.5428 60.1331 55.1635L49.6697 26.0696L49.6907 26.0766ZM48.532 30.1215L50.3227 35.1004L48.518 37.172L46.7132 35.1777L48.532 30.1285V30.1215ZM35.2245 22.8673L37.7877 29.9951L35.1262 32.9375L32.577 30.2339L35.2245 22.8744V22.8673ZM21.7625 30.1356L23.5672 35.1566L21.8116 37.172L19.9647 35.1285L21.7625 30.1356ZM21.2569 54.37H13.0406L13.0617 54.3138L19.0237 37.7479L20.9198 39.8476C21.1515 40.1074 21.4816 40.2549 21.8327 40.2549H21.8467C22.1979 40.2549 22.5279 40.1004 22.7597 39.8335L24.5223 37.8111L25.8776 41.5821L21.2569 54.37ZM37.1908 54.37H23.8833H23.8622L27.1768 45.2127L28.483 41.5821L31.636 32.8252L34.2414 35.592C34.4731 35.8378 34.7961 35.9782 35.1332 35.9782H35.1472C35.4913 35.9782 35.8144 35.8307 36.0461 35.5709L38.7217 32.6145L41.8677 41.3644L43.1739 44.995L46.5236 54.377H37.1838L37.1908 54.37ZM51.4112 54.3489H49.1359L44.4871 41.3504L45.7722 37.79L47.6261 39.8406C47.8579 40.1004 48.1879 40.2479 48.539 40.2479H48.5531C48.9042 40.2479 49.2343 40.0934 49.466 39.8265L51.2778 37.7479L57.2539 54.3559H51.4182L51.4112 54.3489Z" fill="#332D17"/>
<path d="M3.00559 45.6533L6.76259 41.8963L10.6109 45.8078C10.8497 46.0536 11.1657 46.173 11.4887 46.173C11.8117 46.173 12.1137 46.0536 12.3525 45.8219C12.837 45.3443 12.844 44.5648 12.3665 44.0873L7.65444 39.291C7.4227 39.0593 7.11371 38.9258 6.78366 38.9258C6.47467 38.9048 6.14462 39.0522 5.91288 39.284L1.27807 43.9188C0.80054 44.3963 0.80054 45.1758 1.27807 45.6533C1.75559 46.1309 2.53508 46.1309 3.01261 45.6533H3.00559Z" fill="#332D17"/>
<path d="M6.4958 19.9604C8.94663 19.9604 10.934 17.966 10.934 15.5222C10.934 13.0784 8.93961 11.084 6.4958 11.084C4.05199 11.084 2.05762 13.0784 2.05762 15.5222C2.05762 17.966 4.05199 19.9604 6.4958 19.9604ZM6.4958 13.5418C7.5913 13.5418 8.47613 14.4337 8.47613 15.5222C8.47613 16.6106 7.58428 17.5025 6.4958 17.5025C5.40732 17.5025 4.51547 16.6106 4.51547 15.5222C4.51547 14.4337 5.40732 13.5418 6.4958 13.5418Z" fill="#332D17"/>
<path d="M46.6363 5.5427H46.6574C46.6995 5.5427 50.1967 5.50057 52.1278 7.43174C52.3596 7.66348 52.6615 7.77583 52.9635 7.77583C53.0337 7.77583 53.104 7.76881 53.1672 7.75476C53.2374 7.76881 53.3006 7.77583 53.3708 7.77583C53.6728 7.77583 53.9747 7.66348 54.2065 7.43174C56.1306 5.50759 59.6067 5.5427 59.677 5.5427C60.3301 5.55674 60.8638 5.0441 60.8848 4.39101C60.8989 3.73792 60.3862 3.19719 59.7331 3.18315C59.5646 3.17613 55.8287 3.11996 53.1672 5.21264C50.5057 3.12698 46.7697 3.18315 46.6012 3.18315C45.9481 3.19719 45.4355 3.73794 45.4495 4.384C45.4635 5.03007 45.9902 5.53567 46.6293 5.53567L46.6363 5.5427Z" fill="#332D17"/>
<path d="M38.6864 11.1956C38.6864 11.1956 41.3479 11.1746 42.8015 12.9864C43.0333 13.2743 43.3774 13.4288 43.7215 13.4288C43.7777 13.4288 43.8338 13.4077 43.883 13.4007C43.9392 13.4077 43.9954 13.4288 44.0445 13.4288C44.3886 13.4288 44.7327 13.2743 44.9645 12.9864C46.4181 11.1746 49.0164 11.1886 49.0796 11.1956C49.7257 11.2167 50.2734 10.7041 50.2875 10.051C50.3085 9.39789 49.7959 8.85717 49.1428 8.83611C49.0024 8.83611 46.074 8.77993 43.876 10.7251C41.678 8.77993 38.7496 8.83611 38.6092 8.83611C37.9561 8.85717 37.4434 9.39789 37.4645 10.051C37.4856 10.7041 38.0333 11.2378 38.6794 11.1956H38.6864Z" fill="#332D17"/>
</svg>
