<svg width="64" height="60" viewBox="0 0 64 60" fill="none" xmlns="http://www.w3.org/2000/svg">
<path d="M28.9414 8.3926V1.37777C28.9414 0.614092 28.3273 0 27.5637 0H15.951C15.1873 0 14.5732 0.614092 14.5732 1.37777V8.3926C14.5732 9.15628 15.1873 9.77037 15.951 9.77037H27.5637C28.3273 9.77037 28.9414 9.15628 28.9414 8.3926ZM26.1859 7.01483H17.3288V2.75554H26.1859V7.01483Z" fill="#332D17"/>
<path d="M49.4424 8.3926V1.37777C49.4424 0.614092 48.8283 0 48.0646 0H36.452C35.6883 0 35.0742 0.614092 35.0742 1.37777V8.3926C35.0742 9.15628 35.6883 9.77037 36.452 9.77037H48.0646C48.8283 9.77037 49.4424 9.15628 49.4424 8.3926ZM46.6869 7.01483H37.8298V2.75554H46.6869V7.01483Z" fill="#332D17"/>
<path d="M32.0035 19.4707C29.6494 19.4707 27.7363 21.5098 27.7363 24.0055V32.3981C27.7363 34.9018 29.6494 36.933 32.0035 36.933C34.3575 36.933 36.2707 34.8939 36.2707 32.3981V24.0055C36.2707 21.5019 34.3575 19.4707 32.0035 19.4707ZM33.5151 32.406C33.5151 33.3901 32.838 34.1853 32.0035 34.1853C31.1689 34.1853 30.4919 33.3823 30.4919 32.406V24.0134C30.4919 23.0293 31.1689 22.2341 32.0035 22.2341C32.838 22.2341 33.5151 23.0372 33.5151 24.0134V32.406Z" fill="#332D17"/>
<path d="M21.4146 13.1465H16.3916C15.1792 13.1465 14.1163 13.9338 13.762 15.0911L4.49553 45.1423C4.32232 45.3706 4.21211 45.6619 4.21211 45.9689C4.21211 45.9926 4.21211 46.0162 4.21211 46.0398L1.0078 56.4321C0.747994 57.2667 0.905476 58.1799 1.42509 58.8806C1.94471 59.5813 2.77138 59.9986 3.64528 59.9986H21.4067C22.9262 59.9986 24.1623 58.7625 24.1623 57.2431V15.902C24.1623 14.3825 22.9262 13.1465 21.4067 13.1465H21.4146ZM16.3916 15.902H21.4146V44.5912H7.55025L16.3916 15.902ZM3.64528 57.2431L6.7 47.3467H21.4146V57.2431H3.65311H3.64528Z" fill="#332D17"/>
<path d="M62.9924 56.4321L50.246 15.0911C49.8917 13.9338 48.821 13.1465 47.6164 13.1465H42.5934C41.0739 13.1465 39.8379 14.3825 39.8379 15.902V57.2431C39.8379 58.7625 41.0739 59.9986 42.5934 59.9986H60.3549C61.2288 59.9986 62.0554 59.5813 62.5751 58.8806C63.0947 58.1799 63.2522 57.2667 62.9924 56.4321ZM47.6164 15.902L56.4577 44.5912H42.5934V15.902H47.6164ZM42.5934 57.2431V47.3467H57.308L60.3628 57.2431H42.6013H42.5934Z" fill="#332D17"/>
</svg>
