<svg width="24" height="24" viewBox="0 0 24 24" fill="none" xmlns="http://www.w3.org/2000/svg">
<path d="M12.0914 17.3808C15.0058 17.3808 17.3875 15.0026 17.3875 12.0883C17.3875 9.17209 15.0058 6.79211 12.0896 6.79211C9.17522 6.79211 6.79705 9.17209 6.79705 12.0883C6.79705 15.0026 9.17883 17.3808 12.0914 17.3808ZM12.0914 15.5693C10.1672 15.5693 8.60849 14.0106 8.60849 12.0883C8.60849 10.1623 10.1672 8.60176 12.0914 8.60176C14.0174 8.60176 15.5761 10.1623 15.5761 12.0883C15.5761 14.0106 14.0192 15.5693 12.0914 15.5693ZM4.1979 17.8418L6.40089 20.0448L10.3362 16.1114L8.13319 13.9065L4.1979 17.8418ZM4.09926 6.31921L8.13319 10.3532L10.3362 8.15015L6.30406 4.11622L4.09926 6.31921ZM20.1018 6.33568L17.8988 4.13269L13.8814 8.15015L16.0843 10.3532L20.1018 6.33568ZM20.0114 17.8254L16.0926 13.9065L13.8814 16.1196L17.8001 20.0366L20.0114 17.8254ZM12.0896 22.4658C17.7741 22.4658 22.4671 17.7663 22.4671 12.0901C22.4671 6.4056 17.7658 1.71436 12.0814 1.71436C6.40692 1.71436 1.71387 6.4056 1.71387 12.0901C1.71387 17.7663 6.41516 22.4658 12.0896 22.4658ZM12.0896 20.4219C7.46602 20.4219 3.76597 16.7136 3.76597 12.0901C3.76597 7.46651 7.45779 3.75823 12.0814 3.75823C16.7049 3.75823 20.4232 7.46651 20.4232 12.0901C20.4232 16.7136 16.7131 20.4219 12.0896 20.4219Z" fill="#0FBB69"/>
</svg>
