<svg width="25" height="25" viewBox="0 0 25 25" fill="none" xmlns="http://www.w3.org/2000/svg">
<g clip-path="url(#clip0_1565_560)">
<path d="M1.1007 12.0692C1.10014 14.0857 1.62702 16.0546 2.62888 17.79L1.00488 23.7195L7.07298 22.1284C8.75133 23.0421 10.6318 23.5209 12.5427 23.521H12.5478C18.8561 23.521 23.9913 18.3877 23.994 12.0782C23.9952 9.02081 22.8056 6.14584 20.6443 3.98286C18.4834 1.82007 15.6094 0.628348 12.5473 0.626953C6.23819 0.626953 1.10339 5.75998 1.10079 12.0692" fill="url(#paint0_linear_1565_560)"/>
<path d="M0.692308 12.0655C0.691657 14.1546 1.23742 16.1939 2.27501 17.9915L0.592773 24.1335L6.87845 22.4854C8.61035 23.4297 10.5603 23.9276 12.5445 23.9283H12.5496C19.0843 23.9283 24.4039 18.6104 24.4067 12.075C24.4078 8.90777 23.1755 5.92945 20.937 3.68898C18.6982 1.4488 15.7214 0.214193 12.5496 0.212891C6.0138 0.212891 0.694913 5.5301 0.692308 12.0655ZM4.43556 17.6819L4.20087 17.3094C3.21426 15.7406 2.69352 13.9278 2.69426 12.0663C2.6964 6.63419 7.11724 2.21475 12.5533 2.21475C15.1859 2.21587 17.6599 3.2421 19.5208 5.10405C21.3815 6.96619 22.4054 9.44154 22.4048 12.0743C22.4024 17.5064 17.9814 21.9264 12.5496 21.9264H12.5457C10.7771 21.9254 9.04245 21.4505 7.5297 20.5529L7.1697 20.3394L3.43966 21.3174L4.43556 17.6818V17.6819Z" fill="black"/>
<path d="M9.58581 7.1106C9.36386 6.6173 9.13027 6.60734 8.9192 6.59869C8.74637 6.59125 8.54879 6.59181 8.35139 6.59181C8.15381 6.59181 7.83279 6.66613 7.56144 6.96241C7.28981 7.25897 6.52441 7.97562 6.52441 9.4332C6.52441 10.8909 7.58609 12.2995 7.73409 12.4974C7.88227 12.6949 9.78367 15.7818 12.795 16.9693C15.2977 17.9562 15.807 17.7599 16.3502 17.7104C16.8934 17.6611 18.1031 16.9939 18.3499 16.3021C18.5969 15.6104 18.5969 15.0175 18.5228 14.8936C18.4488 14.7701 18.2512 14.696 17.9549 14.5479C17.6586 14.3997 16.202 13.683 15.9305 13.5841C15.6588 13.4853 15.4613 13.436 15.2638 13.7326C15.0662 14.0288 14.4988 14.696 14.3259 14.8936C14.1532 15.0916 13.9802 15.1163 13.684 14.9681C13.3876 14.8194 12.4334 14.507 11.3014 13.4978C10.4207 12.7125 9.82609 11.7427 9.65325 11.446C9.48041 11.1499 9.63474 10.9893 9.7833 10.8417C9.91641 10.7089 10.0797 10.4957 10.2279 10.3228C10.3757 10.1498 10.425 10.0263 10.5238 9.82874C10.6226 9.63097 10.5732 9.45795 10.4992 9.30976C10.425 9.16157 9.84925 7.69636 9.58581 7.1106Z" fill="black"/>
</g>
<defs>
<linearGradient id="paint0_linear_1565_560" x1="1150.46" y1="2309.88" x2="1150.46" y2="0.626953" gradientUnits="userSpaceOnUse">
<stop stop-color="#1FAF38"/>
<stop offset="1" stop-color="#60D669"/>
</linearGradient>
<clipPath id="clip0_1565_560">
<rect width="23.814" height="24" fill="white" transform="translate(0.592773 0.212891)"/>
</clipPath>
</defs>
</svg>
