<svg width="51" height="50" viewBox="0 0 51 50" fill="none" xmlns="http://www.w3.org/2000/svg">
<g clip-path="url(#clip0_976_2156)">
<path d="M24.0633 0.195312C21.6707 0.830078 19.6785 2.83203 19.0633 5.23438C18.9559 5.6543 18.868 6.17188 18.868 6.38672C18.868 6.78711 18.868 6.78711 18.2625 7.03125C17.9305 7.16797 17.1785 7.54883 16.5926 7.88086C11.9149 10.5469 8.68244 15.0098 7.4715 20.459L7.20783 21.6309L7.17853 33.877C7.14924 44.8926 7.159 46.1719 7.29572 46.6699C7.71564 48.125 8.93635 49.3652 10.3817 49.8145C10.9578 49.9902 11.5242 50 25.8992 50C40.2742 50 40.8406 49.9902 41.4168 49.8145C42.8621 49.3652 44.0828 48.125 44.5028 46.6699C44.6395 46.1719 44.6492 44.8926 44.6199 33.877L44.5906 21.6309L44.327 20.459C43.116 15.0098 39.8836 10.5469 35.2059 7.88086C34.6199 7.54883 33.868 7.16797 33.536 7.03125C32.9305 6.78711 32.9305 6.78711 32.9305 6.38672C32.9305 6.17188 32.8426 5.6543 32.7352 5.23438C32.1199 2.8125 30.118 0.810547 27.6961 0.195312C26.6903 -0.0683594 25.0594 -0.0585938 24.0633 0.195312ZM27.5887 3.59375C27.9988 3.79883 28.3895 4.0918 28.6824 4.41406C29.1024 4.88281 29.5711 5.63477 29.493 5.71289C29.4735 5.73242 29.0438 5.68359 28.536 5.60547C27.9988 5.52734 26.8758 5.46875 25.8992 5.46875C24.9227 5.46875 23.7996 5.52734 23.2625 5.60547C22.7547 5.68359 22.325 5.73242 22.3055 5.71289C22.2371 5.64453 22.7059 4.85352 23.0379 4.48242C23.4969 3.97461 23.8485 3.73047 24.5223 3.44727C24.991 3.25195 25.1961 3.22266 26.0067 3.24219C26.827 3.27148 27.0125 3.31055 27.5887 3.59375ZM27.1688 11.0742C30.4207 11.2891 33.9559 13.1738 36.1141 15.8594C37.95 18.1445 38.9461 20.6836 39.0438 23.3887C39.0926 24.5508 39.0828 24.6875 38.8973 24.9805C38.2821 25.9375 36.8953 25.918 36.3192 24.9316C36.1922 24.707 36.1141 24.2871 36.0555 23.4668C35.8504 20.8398 34.8153 18.6621 32.9012 16.8359C30.9188 14.9512 28.6824 14.0625 25.8992 14.0625C23.116 14.0625 20.8797 14.9512 18.8973 16.8359C16.9832 18.6621 15.9481 20.8398 15.743 23.4668C15.6844 24.2871 15.6063 24.707 15.4793 24.9316C14.9031 25.918 13.5164 25.9375 12.9012 24.9805C12.7156 24.6875 12.7059 24.5508 12.7547 23.3887C12.8914 19.8242 14.6883 16.2988 17.5399 14.0039C19.1512 12.7051 20.909 11.8359 22.8231 11.3672C23.7996 11.1328 25.5281 10.9375 26.0946 10.9961C26.2313 11.0156 26.7098 11.0449 27.1688 11.0742ZM35.118 29.9609C36.6317 30.5273 37.7156 31.6699 38.1746 33.1543C38.3309 33.6719 38.3504 34.1211 38.3504 37.1094C38.3504 40.0977 38.3309 40.5469 38.1746 41.0645C37.6961 42.627 36.4363 43.877 34.9129 44.2969C34.2879 44.4727 33.7508 44.4824 25.8992 44.4824C18.0477 44.4824 17.5106 44.4727 16.8856 44.2969C15.3621 43.877 14.1024 42.627 13.6238 41.0645C13.4676 40.5469 13.4481 40.0977 13.4481 37.1094C13.4481 34.1211 13.4676 33.6719 13.6238 33.1543C14.1805 31.3281 15.6746 30.0488 17.5496 29.7852C17.8719 29.7461 21.827 29.7168 26.3387 29.7266L34.5418 29.7461L35.118 29.9609Z" fill="#151009" fill-opacity="0.6"/>
<path d="M17.2275 33.0078C17.0518 33.1152 16.8271 33.3398 16.7197 33.5156C16.5342 33.8184 16.5244 34.0137 16.5244 37.1094C16.5244 40.2051 16.5342 40.4004 16.7197 40.7031C16.8271 40.8789 17.0518 41.1035 17.2275 41.2109C17.54 41.3965 17.7354 41.4062 25.8994 41.4062C34.0635 41.4062 34.2588 41.3965 34.5713 41.2109C34.7471 41.1035 34.9717 40.8789 35.0791 40.7031C35.2646 40.4004 35.2744 40.2051 35.2744 37.1094C35.2744 34.0137 35.2646 33.8184 35.0791 33.5156C34.9717 33.3398 34.7471 33.1152 34.5713 33.0078C34.2588 32.8223 34.0635 32.8125 25.8994 32.8125C17.7354 32.8125 17.54 32.8223 17.2275 33.0078Z" fill="#151009" fill-opacity="0.6"/>
<path d="M1.60254 26.7578C1.42676 26.8652 1.20215 27.0898 1.09473 27.2656C0.90918 27.5781 0.899414 27.7734 0.899414 33.5059C0.899414 39.082 0.90918 39.4629 1.09473 40.1953C1.50488 41.8262 2.87207 43.9453 3.52637 43.9453C3.67285 43.9453 3.83887 43.8965 3.90723 43.8281C4.07324 43.6621 4.07324 26.8457 3.90723 26.6797C3.8291 26.6016 3.44824 26.5625 2.85254 26.5625C2.10059 26.5625 1.86621 26.6016 1.60254 26.7578Z" fill="#151009" fill-opacity="0.6"/>
<path d="M47.8921 26.6797C47.7261 26.8457 47.7261 43.6621 47.8921 43.8281C47.9604 43.8965 48.1265 43.9453 48.2729 43.9453C48.9272 43.9453 50.2944 41.8262 50.7046 40.1953C50.8901 39.4629 50.8999 39.082 50.8999 33.5059C50.8999 27.7734 50.8901 27.5781 50.7046 27.2656C50.3628 26.709 50.0015 26.5625 48.9468 26.5625C48.3511 26.5625 47.9702 26.6016 47.8921 26.6797Z" fill="#151009" fill-opacity="0.6"/>
</g>
<defs>
<clipPath id="clip0_976_2156">
<rect width="50" height="50" fill="white" transform="translate(0.899414)"/>
</clipPath>
</defs>
</svg>
