<svg width="60" height="59" viewBox="0 0 60 59" fill="none" xmlns="http://www.w3.org/2000/svg">
<path d="M59.9082 1.49457C59.6531 0.881029 58.9499 0.584591 58.3295 0.839658C48.6231 4.84491 38.9099 8.84329 29.2035 12.8416C28.59 13.0967 28.2936 13.7999 28.5486 14.4203C28.7417 14.8822 29.1898 15.1648 29.6654 15.1648C29.8171 15.1648 29.9757 15.1372 30.1273 15.0752C39.8406 11.0768 49.5469 7.07851 59.2533 3.07326C59.8668 2.81819 60.1632 2.115 59.9082 1.49457Z" fill="#332D17"/>
<path d="M20.3729 17.7856C20.1178 17.172 19.4147 16.8756 18.8011 17.1307L0.746505 24.569C0.132964 24.8241 -0.163453 25.5272 0.0916144 26.1477C0.284638 26.6095 0.732727 26.8922 1.20839 26.8922C1.36005 26.8922 1.51862 26.8646 1.67028 26.8026L19.7249 19.3642C20.3384 19.1092 20.6349 18.406 20.3798 17.7856H20.3729Z" fill="#332D17"/>
<path d="M23.847 20.266H28.3555V26.8909C28.3555 27.5596 28.8932 28.0973 29.5619 28.0973C30.2306 28.0973 30.7683 27.5596 30.7683 26.8909V19.2802C30.7683 19.2044 30.7614 19.1355 30.7476 19.0596C30.7476 18.3909 30.2099 17.8532 29.5412 17.8532H25.0534V11.2077H29.5619C30.2306 11.2077 30.7683 10.67 30.7683 10.0013C30.7683 9.33263 30.2306 8.79492 29.5619 8.79492H23.847C23.1783 8.79492 22.6406 9.33263 22.6406 10.0013V19.0596C22.6406 19.7283 23.1783 20.266 23.847 20.266Z" fill="#332D17"/>
<path d="M46.5826 29.7188H12.5552C10.3354 29.7188 8.5293 31.5249 8.5293 33.7447V46.3257C8.5293 48.9109 13.1343 58.4656 15.8918 58.4656H44.5903C47.4236 58.4656 50.4983 49.4762 50.6154 46.8772C50.7809 43.2167 50.6223 34.1032 50.6154 33.7447C50.6154 31.5249 48.8093 29.7188 46.5895 29.7188H46.5826ZM48.1957 46.7738C48.0786 49.2969 45.5072 55.2117 44.4042 56.0597H16.0366C14.7061 55.2255 10.9352 48.4352 10.9352 46.3326V33.7516C10.9352 32.8623 11.6591 32.1385 12.5483 32.1385H46.5757C47.465 32.1385 48.1888 32.8623 48.1888 33.7723C48.1888 33.8688 48.3543 43.1891 48.1888 46.7738H48.1957Z" fill="#332D17"/>
<path d="M17.4845 46.5311H20.2283C22.2274 46.5311 23.8612 44.9042 23.8612 42.8981V39.5822C23.8612 37.583 22.2343 35.9492 20.2283 35.9492H17.4845C15.4854 35.9492 13.8516 37.5761 13.8516 39.5822V42.8981C13.8516 44.8973 15.4785 46.5311 17.4845 46.5311ZM16.2644 39.5822C16.2644 38.9135 16.809 38.362 17.4845 38.362H20.2283C20.8969 38.362 21.4484 38.9066 21.4484 39.5822V42.8981C21.4484 43.5668 20.9038 44.1183 20.2283 44.1183H17.4845C16.8159 44.1183 16.2644 43.5737 16.2644 42.8981V39.5822Z" fill="#332D17"/>
<path d="M28.0871 46.5311H30.8308C32.83 46.5311 34.4638 44.9042 34.4638 42.8981V39.5822C34.4638 37.583 32.8369 35.9492 30.8308 35.9492H28.0871C26.0879 35.9492 24.4541 37.5761 24.4541 39.5822V42.8981C24.4541 44.8973 26.081 46.5311 28.0871 46.5311ZM26.8669 39.5822C26.8669 38.9135 27.4115 38.362 28.0871 38.362H30.8308C31.4995 38.362 32.051 38.9066 32.051 39.5822V42.8981C32.051 43.5668 31.5064 44.1183 30.8308 44.1183H28.0871C27.4184 44.1183 26.8669 43.5737 26.8669 42.8981V39.5822Z" fill="#332D17"/>
<path d="M41.4958 35.9492H38.7521C36.7529 35.9492 35.1191 37.5761 35.1191 39.5822V42.8981C35.1191 44.8973 36.7461 46.5311 38.7521 46.5311H41.4958C43.495 46.5311 45.1288 44.9042 45.1288 42.8981V39.5822C45.1288 37.583 43.5019 35.9492 41.4958 35.9492ZM42.716 42.8981C42.716 43.5668 42.1714 44.1183 41.4958 44.1183H38.7521C38.0834 44.1183 37.5319 43.5737 37.5319 42.8981V39.5822C37.5319 38.9135 38.0765 38.362 38.7521 38.362H41.4958C42.1645 38.362 42.716 38.9066 42.716 39.5822V42.8981Z" fill="#332D17"/>
<path d="M43.625 48.4068L15.3539 48.3379C14.6921 48.3379 14.1475 48.8756 14.1475 49.5443C14.1475 50.213 14.6852 50.7507 15.3539 50.7507L43.625 50.8196C44.2868 50.8196 44.8314 50.2819 44.8314 49.6132C44.8314 48.9445 44.2937 48.4068 43.625 48.4068Z" fill="#332D17"/>
</svg>
