<svg width="24" height="25" viewBox="0 0 24 25" fill="none" xmlns="http://www.w3.org/2000/svg">
<path d="M16.2052 22.6076C18.0273 22.6076 19.2623 22.0836 20.3787 20.8628C20.4602 20.7813 20.5313 20.6911 20.6129 20.6077C21.2236 19.9184 21.5288 19.2 21.5288 18.5335C21.5288 17.7546 21.1039 17.0483 20.1719 16.3998L17.0695 14.2443C16.0896 13.5677 14.9663 13.5097 14.0884 14.3828L13.3117 15.1614C13.0399 15.4351 12.7881 15.4492 12.4788 15.2356C11.9223 14.8604 10.8512 13.9223 10.117 13.1899C9.36738 12.4489 8.61043 11.5933 8.20182 10.9587C7.99386 10.6494 8.01285 10.408 8.28463 10.1344L9.05472 9.35762C9.93831 8.47972 9.88215 7.34795 9.20364 6.37846L6.99643 3.23096C6.37528 2.33093 5.64085 1.90522 4.85993 1.89667C4.18788 1.88811 3.48829 2.18304 2.79705 2.79002C2.70694 2.8697 2.62351 2.94083 2.54092 3.00632C1.30798 4.1433 0.780273 5.36142 0.780273 7.24637C0.780273 10.3211 2.56324 13.9485 6.02945 17.396C9.47668 20.8226 13.0732 22.6076 16.2052 22.6076ZM16.2005 20.8664C13.543 20.911 10.2209 19.0058 7.3433 16.1555C4.4486 13.2863 2.48334 9.85136 2.52798 7.19381C2.54508 6.07101 2.93951 5.08963 3.73712 4.40486C3.80721 4.33665 3.87917 4.277 3.95781 4.2211C4.24523 3.96871 4.56875 3.83396 4.8495 3.83396C5.15862 3.83396 5.43165 3.95432 5.63355 4.26719L7.60049 7.20632C7.84203 7.56341 7.85162 7.96785 7.49829 8.31556L6.65561 9.1507C5.86363 9.92104 5.93559 10.8158 6.44202 11.5239C7.00645 12.3157 8.0577 13.5083 8.93291 14.3759C9.86738 15.3028 11.1537 16.4498 11.9136 17.0041C12.6236 17.5123 13.5269 17.5758 14.2953 16.7905L15.1305 15.9497C15.4782 15.5945 15.8741 15.6078 16.2331 15.8389L19.1271 17.7608C19.4456 17.9713 19.5689 18.2358 19.5689 18.543C19.5689 18.8323 19.436 19.1472 19.1732 19.4451C19.1173 19.5237 19.0663 19.5871 18.998 19.6657C18.3047 20.4548 17.3233 20.8493 16.2005 20.8664Z" fill="black"/>
<path d="M12.2396 11.1838C12.8102 11.7525 13.7221 11.7525 14.2909 11.1838C14.8531 10.613 14.8531 9.70109 14.2909 9.14942C13.7221 8.56832 12.8102 8.56832 12.2396 9.13233C11.6688 9.70109 11.6688 10.613 12.2396 11.1838ZM13.2889 5.32529C12.9289 5.67863 12.9289 6.26599 13.2889 6.61932L16.8039 10.141C17.1591 10.4963 17.7446 10.4944 18.0961 10.141C18.4513 9.78956 18.4513 9.20406 18.0961 8.84886L14.5744 5.32529C14.2192 4.97195 13.6337 4.97195 13.2889 5.32529ZM17.0978 6.34254C17.6667 6.88756 18.5785 6.89611 19.1407 6.32543C19.7009 5.76518 19.7009 4.85327 19.1407 4.29114C18.5785 3.72046 17.658 3.72046 17.0978 4.28071C16.5253 4.85327 16.5253 5.75663 17.0978 6.34254ZM18.1453 0.479301C17.792 0.830761 17.7938 1.40957 18.1453 1.77146L21.6518 5.28461C22.0156 5.64838 22.6011 5.64838 22.9525 5.28461C23.3077 4.93127 23.3077 4.35434 22.9525 3.99912L19.4412 0.479301C19.0775 0.124087 18.492 0.124087 18.1453 0.479301Z" fill="black"/>
</svg>
