<svg width="60" height="35" viewBox="0 0 60 35" fill="none" xmlns="http://www.w3.org/2000/svg">
<path d="M26.9529 20.7947H46.4107C47.0394 20.7947 47.5449 20.2892 47.5449 19.6605V8.88154H58.8683C59.1924 8.88154 59.5035 8.73897 59.7174 8.49915C59.9313 8.25285 60.035 7.92877 59.9896 7.60469C59.5942 4.46759 55.5432 1.51196 55.083 1.18788C54.8886 1.05177 54.6617 0.980469 54.4284 0.980469H46.4042C45.7755 0.980469 45.2699 1.48603 45.2699 2.11475V6.61298H41.3226C40.6939 6.61298 40.1883 7.11855 40.1883 7.74726C40.1883 8.37598 40.6939 8.88154 41.3226 8.88154H45.2699V10.8779H35.1521C35.8651 7.7732 35.6447 4.48704 33.4799 3.7611C33.2336 3.67684 32.9808 3.63795 32.7215 3.63795C30.3946 3.63795 28.2816 6.81393 27.2186 9.95751C27.1149 10.2621 27.0372 10.5733 26.9529 10.8779H17.6129L24.8853 4.31851C25.3519 3.89721 25.3844 3.18421 24.9695 2.71753C24.5482 2.25086 23.8352 2.21845 23.3686 2.63327L14.6638 10.4825C14.5406 10.5927 14.4499 10.7288 14.3851 10.8714H5.45342C4.86359 10.8714 4.37748 11.3186 4.32563 11.902C4.31266 12.0835 4.21544 13.7298 5.88769 15.5641C8.06551 17.9493 13.4971 20.7882 26.9594 20.7882L26.9529 20.7947ZM47.5449 3.24903H54.059C54.9145 3.90367 56.4636 5.26481 57.2609 6.61298H47.5449V3.24903ZM32.7539 5.90651C33.0586 6.01022 33.6225 7.62412 32.9095 10.5084H29.4224C30.4983 7.44263 32.0993 5.90651 32.7475 5.90651H32.7539ZM45.2764 13.1464V18.5262H26.9529C13.8665 18.5262 9.25813 15.7909 7.67013 14.1641C7.30716 13.7946 7.06735 13.4446 6.90531 13.1464H45.2764Z" fill="#332D17"/>
<path d="M16.135 27.082C16.7572 27.1792 17.3017 27.6459 17.7943 28.508C18.1054 29.0524 18.7989 29.2339 19.3434 28.9228C19.8878 28.6117 20.0693 27.9182 19.7582 27.3737C18.9091 25.9024 17.8137 25.0533 16.4915 24.8394C13.7173 24.3921 10.9173 26.9005 8.45428 29.1108C7.48204 29.9793 6.56166 30.8024 5.92646 31.1654C4.58477 31.9173 3.4116 32.0793 2.71807 31.6062C2.53658 31.483 2.42639 31.3404 2.35509 31.2173C2.85417 31.2108 3.3079 30.8673 3.43753 30.3617C3.59309 29.7524 3.22363 29.1367 2.62084 28.9811C1.42822 28.6765 0.624513 29.2274 0.268025 29.8432C-0.263467 30.7765 0.015235 32.1247 0.929141 33.0516C1.2597 33.3886 2.18009 34.1405 3.71623 34.1405C4.61069 34.1405 5.71256 33.8877 7.03481 33.1488C7.89038 32.6691 8.85614 31.8071 9.97097 30.8025C11.8506 29.1172 14.4303 26.8098 16.1415 27.082H16.135Z" fill="#332D17"/>
<path d="M29.3768 26.9987C29.999 27.0959 30.5435 27.5626 31.0361 28.4246C31.3472 28.9691 32.0408 29.1506 32.5852 28.8395C33.1297 28.5284 33.3111 27.8348 33 27.2904C32.1509 25.819 31.0556 24.9699 29.7333 24.756C26.9527 24.3153 24.1591 26.8172 21.6896 29.0274C20.7174 29.896 19.8035 30.7191 19.1618 31.0821C17.8136 31.834 16.647 31.996 15.9534 31.5228C15.7784 31.3997 15.6618 31.2571 15.5905 31.134C16.0895 31.1275 16.5432 30.7839 16.6729 30.2784C16.8284 29.6691 16.459 29.0534 15.8562 28.8978C14.6636 28.5932 13.8599 29.1441 13.5034 29.7599C12.9719 30.6932 13.2506 32.0414 14.1645 32.9683C14.4951 33.3053 15.4155 34.0572 16.9516 34.0572C17.8461 34.0572 18.9479 33.8044 20.2702 33.059C21.1257 32.5793 22.0915 31.7173 23.2063 30.7191C25.086 29.0339 27.6592 26.7265 29.3768 26.9987Z" fill="#332D17"/>
<path d="M42.7553 27.1725C43.3775 27.2697 43.922 27.7364 44.4146 28.5984C44.7257 29.1429 45.4192 29.3244 45.9637 29.0133C46.5081 28.7022 46.6896 28.0086 46.3785 27.4642C45.5294 25.9928 44.434 25.1438 43.1118 24.9299C40.3311 24.4891 37.5376 26.991 35.0681 29.2013C34.0958 30.0698 33.1819 30.8929 32.5403 31.2559C31.1921 32.0078 30.0254 32.1698 29.3319 31.6967C29.1569 31.5735 29.0402 31.4309 28.9689 31.3078C29.468 31.3013 29.9217 30.9578 30.0513 30.4522C30.2069 29.8429 29.8374 29.2272 29.2346 29.0716C28.0355 28.767 27.2383 29.3179 26.8818 29.9336C26.3503 30.867 26.6226 32.2152 27.543 33.142C27.8735 33.4791 28.7939 34.231 30.33 34.231C31.2245 34.231 32.3264 33.9782 33.6486 33.2328C34.5042 32.7532 35.47 31.8911 36.5783 30.8929C38.458 29.2077 41.0312 26.9003 42.7488 27.1725H42.7553Z" fill="#332D17"/>
<path d="M56.3602 24.853C53.5795 24.4058 50.786 26.9142 48.323 29.1244C47.3507 29.9929 46.4303 30.8226 45.7951 31.1791C44.4535 31.931 43.2803 32.093 42.5867 31.6198C42.4117 31.4967 42.2951 31.3541 42.2238 31.2309C42.7229 31.2244 43.1766 30.8809 43.3062 30.3754C43.4618 29.7661 43.0923 29.1504 42.4895 28.9948C41.2969 28.6902 40.4932 29.2411 40.1367 29.8568C39.6052 30.7902 39.8774 32.1384 40.7978 33.0652C41.1284 33.4023 42.0488 34.1541 43.5849 34.1541C44.4794 34.1541 45.5813 33.9014 46.9035 33.1625C47.7591 32.6828 48.7248 31.8208 49.8397 30.8161C51.7193 29.1309 54.2925 26.817 56.0101 27.0957C56.6324 27.1929 57.1768 27.6596 57.6694 28.5216C57.9805 29.0661 58.6741 29.2476 59.2185 28.9364C59.763 28.6253 59.9445 27.9318 59.6334 27.3873C58.7843 25.916 57.6889 25.0669 56.3666 24.853H56.3602Z" fill="#332D17"/>
</svg>
