<svg width="24" height="25" viewBox="0 0 24 25" fill="none" xmlns="http://www.w3.org/2000/svg">
<path d="M12 9.21289C11.2044 9.21289 10.4413 9.52896 9.87868 10.0916C9.31607 10.6542 9 11.4172 9 12.2129C9 13.0085 9.31607 13.7716 9.87868 14.3342C10.4413 14.8968 11.2044 15.2129 12 15.2129C12.7956 15.2129 13.5587 14.8968 14.1213 14.3342C14.6839 13.7716 15 13.0085 15 12.2129C15 11.4172 14.6839 10.6542 14.1213 10.0916C13.5587 9.52896 12.7956 9.21289 12 9.21289ZM12 7.21289C13.3261 7.21289 14.5979 7.73967 15.5355 8.67736C16.4732 9.61504 17 10.8868 17 12.2129C17 13.539 16.4732 14.8107 15.5355 15.7484C14.5979 16.6861 13.3261 17.2129 12 17.2129C10.6739 17.2129 9.40215 16.6861 8.46447 15.7484C7.52678 14.8107 7 13.539 7 12.2129C7 10.8868 7.52678 9.61504 8.46447 8.67736C9.40215 7.73967 10.6739 7.21289 12 7.21289ZM18.5 6.96289C18.5 7.29441 18.3683 7.61235 18.1339 7.84677C17.8995 8.08119 17.5815 8.21289 17.25 8.21289C16.9185 8.21289 16.6005 8.08119 16.3661 7.84677C16.1317 7.61235 16 7.29441 16 6.96289C16 6.63137 16.1317 6.31343 16.3661 6.07901C16.6005 5.84459 16.9185 5.71289 17.25 5.71289C17.5815 5.71289 17.8995 5.84459 18.1339 6.07901C18.3683 6.31343 18.5 6.63137 18.5 6.96289ZM12 4.21289C9.526 4.21289 9.122 4.21989 7.971 4.27089C7.187 4.30789 6.661 4.41289 6.173 4.60289C5.76462 4.75283 5.39541 4.99315 5.093 5.30589C4.78001 5.60829 4.53935 5.97747 4.389 6.38589C4.199 6.87589 4.094 7.40089 4.058 8.18389C4.006 9.28789 4 9.67389 4 12.2129C4 14.6869 4.007 15.0909 4.058 16.2419C4.095 17.0249 4.2 17.5519 4.389 18.0389C4.559 18.4739 4.759 18.7869 5.091 19.1189C5.428 19.4549 5.741 19.6559 6.171 19.8219C6.665 20.0129 7.191 20.1189 7.971 20.1549C9.075 20.2069 9.461 20.2129 12 20.2129C14.474 20.2129 14.878 20.2059 16.029 20.1549C16.811 20.1179 17.338 20.0129 17.826 19.8239C18.2338 19.6732 18.6027 19.4334 18.906 19.1219C19.243 18.7849 19.444 18.4719 19.61 18.0419C19.8 17.5489 19.906 17.0219 19.942 16.2419C19.994 15.1379 20 14.7519 20 12.2129C20 9.73889 19.993 9.33489 19.942 8.18389C19.905 7.40189 19.8 6.87389 19.61 6.38589C19.4593 5.97789 19.2191 5.60885 18.907 5.30589C18.6047 4.99274 18.2355 4.75206 17.827 4.60189C17.337 4.41189 16.811 4.30689 16.029 4.27089C14.925 4.21889 14.539 4.21289 12 4.21289ZM12 2.21289C14.717 2.21289 15.056 2.22289 16.122 2.27289C17.187 2.32289 17.912 2.48989 18.55 2.73789C19.21 2.99189 19.766 3.33589 20.322 3.89089C20.8305 4.39079 21.224 4.99548 21.475 5.66289C21.722 6.29989 21.89 7.02589 21.94 8.09089C21.987 9.15689 22 9.49589 22 12.2129C22 14.9299 21.99 15.2689 21.94 16.3349C21.89 17.3999 21.722 18.1249 21.475 18.7629C21.2247 19.4307 20.8311 20.0355 20.322 20.5349C19.822 21.0432 19.2173 21.4366 18.55 21.6879C17.913 21.9349 17.187 22.1029 16.122 22.1529C15.056 22.1999 14.717 22.2129 12 22.2129C9.283 22.2129 8.944 22.2029 7.878 22.1529C6.813 22.1029 6.088 21.9349 5.45 21.6879C4.78233 21.4374 4.17753 21.0438 3.678 20.5349C3.16941 20.0351 2.77593 19.4304 2.525 18.7629C2.277 18.1259 2.11 17.3999 2.06 16.3349C2.013 15.2689 2 14.9299 2 12.2129C2 9.49589 2.01 9.15689 2.06 8.09089C2.11 7.02489 2.277 6.30089 2.525 5.66289C2.77524 4.99507 3.1688 4.39021 3.678 3.89089C4.17767 3.38212 4.78243 2.98862 5.45 2.73789C6.088 2.48989 6.812 2.32289 7.878 2.27289C8.944 2.22589 9.283 2.21289 12 2.21289Z" fill="black"/>
</svg>
