<svg width="24" height="25" viewBox="0 0 24 25" fill="none" xmlns="http://www.w3.org/2000/svg">
<path d="M6.94043 5.21194C6.94017 5.74237 6.7292 6.25097 6.35394 6.62586C5.97868 7.00074 5.46986 7.2112 4.93943 7.21094C4.409 7.21067 3.90039 6.9997 3.52551 6.62444C3.15062 6.24918 2.94016 5.74037 2.94043 5.20994C2.9407 4.6795 3.15166 4.1709 3.52692 3.79602C3.90218 3.42113 4.411 3.21067 4.94143 3.21094C5.47186 3.2112 5.98047 3.42217 6.35535 3.79743C6.73024 4.17269 6.9407 4.6815 6.94043 5.21194ZM7.00043 8.69194H3.00043V21.2119H7.00043V8.69194ZM13.3204 8.69194H9.34043V21.2119H13.2804V14.6419C13.2804 10.9819 18.0504 10.6419 18.0504 14.6419V21.2119H22.0004V13.2819C22.0004 7.11194 14.9404 7.34194 13.2804 10.3719L13.3204 8.69194Z" fill="black"/>
</svg>
