<svg width="24" height="25" viewBox="0 0 24 25" fill="none" xmlns="http://www.w3.org/2000/svg">
<path d="M22.1623 5.86979C21.3989 6.20749 20.5893 6.42927 19.7603 6.52779C20.634 6.00523 21.288 5.18281 21.6003 4.21379C20.7803 4.70179 19.8813 5.04379 18.9443 5.22879C18.3149 4.55537 17.4807 4.10876 16.5713 3.95838C15.6618 3.808 14.7282 3.96228 13.9156 4.39725C13.1029 4.83221 12.4567 5.52348 12.0774 6.36359C11.6981 7.2037 11.607 8.14557 11.8183 9.04279C10.1554 8.95945 8.52863 8.52732 7.04358 7.77446C5.55854 7.0216 4.24842 5.96484 3.1983 4.67279C2.82659 5.31124 2.63125 6.03702 2.6323 6.77579C2.6323 8.22579 3.3703 9.50679 4.4923 10.2568C3.82831 10.2359 3.17893 10.0566 2.5983 9.73379V9.78579C2.5985 10.7515 2.93267 11.6874 3.54414 12.4349C4.15562 13.1823 5.00678 13.6953 5.9533 13.8868C5.33691 14.0538 4.6906 14.0785 4.0633 13.9588C4.33016 14.79 4.8503 15.517 5.55089 16.0379C6.25147 16.5588 7.09742 16.8476 7.9703 16.8638C7.10278 17.5451 6.10947 18.0488 5.04718 18.346C3.98488 18.6432 2.87442 18.728 1.7793 18.5958C3.69099 19.8252 5.91639 20.4779 8.1893 20.4758C15.8823 20.4758 20.0893 14.1028 20.0893 8.57579C20.0893 8.39579 20.0843 8.21379 20.0763 8.03579C20.8952 7.44396 21.6019 6.71081 22.1633 5.87079L22.1623 5.86979Z" fill="black"/>
</svg>
