<svg width="60" height="59" viewBox="0 0 60 59" fill="none" xmlns="http://www.w3.org/2000/svg">
<path d="M57.4103 29.8809C57.1939 30.0205 54.6252 31.7167 51.3793 34.4181C51.1071 31.6608 53.9271 28.8338 53.969 28.7989C54.4507 28.3243 54.4576 27.5565 53.99 27.0748C53.5223 26.5932 52.7475 26.5862 52.2658 27.0538C52.0704 27.2423 47.61 31.6957 49.3201 36.198C46.3605 38.8436 43.1565 42.1383 40.7693 45.7402C39.6524 47.4224 38.2564 48.3927 36.5043 48.7068C37.8026 46.4452 40.5808 40.7143 41.2369 32.4776C41.6418 32.4078 42.0885 32.2542 42.5841 31.9819C45.0482 30.6208 46.0045 27.7658 47.3238 23.815C47.5402 23.1658 47.7705 22.4887 48.0148 21.7767C48.2382 21.1415 47.8961 20.4435 47.2609 20.2201C46.6257 19.9968 45.9277 20.3388 45.7043 20.974C45.453 21.6999 45.2227 22.384 45.0063 23.0402C43.8127 26.5931 43.0309 28.9455 41.3975 29.846C41.1601 29.9786 40.7344 30.181 40.5389 30.0414C39.094 29.0153 39.3104 21.3998 40.4063 14.9221C40.518 14.2589 40.0712 13.6237 39.4081 13.512C38.745 13.4003 38.1098 13.8471 37.9981 14.5103C37.4187 17.9097 35.8202 28.9385 38.8357 31.7935C38.4378 37.6499 36.8673 42.2291 35.5829 45.084C34.8709 41.6567 32.9025 37.2311 30.6129 32.5962C32.7419 32.3938 34.5917 30.0763 36.1134 25.6927C36.3368 25.0575 35.9947 24.3595 35.3595 24.1361C34.7173 23.9127 34.0263 24.2548 33.8029 24.89C32.3929 28.9455 30.9759 30.2648 30.1801 30.1671C29.4262 30.0694 28.6165 28.764 28.5328 27.8217C28.4281 26.6071 30.6339 24.9109 32.1556 24.1431C32.7559 23.8429 33.0002 23.11 32.7 22.5027C32.3999 21.8954 31.6669 21.6511 31.0596 21.9582C30.6827 22.1467 28.2326 23.4311 26.9133 25.3367C26.3759 24.2826 25.8523 23.2566 25.3567 22.2584C25.3567 22.2584 25.3567 22.2514 25.3567 22.2444C25.3079 22.1257 25.2451 22.0071 25.1753 21.8815C25.0566 21.6371 24.9309 21.3928 24.8123 21.1485C26.8854 20.276 31.276 17.9166 31.276 13.6237C31.276 12.9467 30.7316 12.4022 30.0545 12.4022C29.3774 12.4022 28.8329 12.9467 28.8329 13.6237C28.8329 16.5345 25.3149 18.3005 23.7582 18.9427C23.3045 17.9585 22.8857 17.0162 22.5437 16.1506C21.4408 13.3934 21.9015 10.9503 22.9765 8.93994C23.0253 8.92598 23.0742 8.919 23.13 8.89806C23.1719 8.8841 27.3601 7.35543 31.2691 9.96607C31.4785 10.1057 31.7158 10.1685 31.9461 10.1685C32.344 10.1685 32.7279 9.98003 32.9653 9.62404C33.3422 9.06561 33.1886 8.30472 32.6232 7.92778C29.9218 6.12686 27.1437 5.88258 25.1403 6.03615C27.025 4.09562 29.0633 2.95784 29.2448 2.86012C29.8381 2.53902 30.0545 1.79907 29.7334 1.20574C29.4123 0.612418 28.6724 0.396055 28.0791 0.710169C24.219 2.79728 17.8529 8.51414 19.8563 15.7946C16.2893 12.3463 12.2337 8.95392 11.5078 8.34663C10.9913 7.91385 10.2164 7.98364 9.79065 8.50716C9.35787 9.0237 9.42768 9.79853 9.9512 10.2243C11.4031 11.4319 13.1133 12.9048 14.8165 14.4334C13.7415 15.4456 11.5636 17.0441 9.56727 15.6271C9.01583 15.2362 8.25497 15.3688 7.86407 15.9133C7.47318 16.4647 7.6058 17.2256 8.15027 17.6165C9.16939 18.3424 10.2095 18.6286 11.2216 18.6286C13.3576 18.6286 15.34 17.3233 16.6244 16.0808C19.6957 18.9358 22.3971 21.7139 23.0812 23.1239C23.856 24.6805 24.6866 26.307 25.5452 27.9753C28.7701 34.2645 32.351 41.2518 33.2166 45.6843C31.3319 43.5623 28.3792 41.2378 25.1334 38.683C24.7913 38.4108 24.4423 38.1386 24.0863 37.8594C25.5731 32.6102 21.8875 26.9701 21.727 26.7258C21.35 26.1674 20.5962 26.0138 20.0308 26.3837C19.4723 26.7607 19.3188 27.5145 19.6887 28.0799C19.7166 28.1288 22.418 32.2472 21.9434 36.1562C18.7464 33.5595 15.7937 30.914 14.7118 28.757C15.2911 28.3661 15.7309 27.8706 15.9822 27.2493C16.764 25.3228 15.6541 23.0053 14.7537 21.1346L14.6489 20.9112C14.3558 20.3039 13.6298 20.0456 13.0225 20.3388C12.4152 20.632 12.157 21.3579 12.4501 21.9652L12.5548 22.1886C13.1691 23.466 14.0975 25.3995 13.7206 26.3279C13.6508 26.4954 13.4972 26.7467 12.9318 26.9491C9.42767 28.2405 5.84678 20.7995 5.81188 20.7227C5.52569 20.1084 4.79973 19.8432 4.19245 20.1294C3.57818 20.4156 3.31292 21.1415 3.59912 21.7488C3.75966 22.0978 7.27077 29.5458 12.0942 29.5458C12.1919 29.5458 12.2896 29.5458 12.3873 29.5318C13.9439 32.9871 18.8511 36.8542 23.6117 40.5957C26.9692 43.2342 30.6827 46.1589 32.1905 48.2949C28.5956 47.2269 25.4824 44.7559 25.4196 44.714C9.92328 32.7847 1.10714 36.3516 0.737185 36.5122C0.122918 36.7774 -0.163273 37.4824 0.0949981 38.1037C0.35327 38.7249 1.06526 39.0181 1.68651 38.7598C1.73537 38.7389 4.59729 37.6499 9.93723 39.1228C7.89898 42.6478 1.64463 42.5711 1.53993 42.5711C0.855857 42.5571 0.304407 43.0876 0.290446 43.7647C0.276485 44.4418 0.806993 45.0002 1.48408 45.0142C1.50502 45.0142 1.56086 45.0142 1.64463 45.0142C2.85222 45.0142 9.95119 44.7978 12.2966 39.8906C15.4936 41.0913 19.3816 43.1504 23.8978 46.6266C24.0863 46.7732 27.1228 49.2024 30.934 50.4658C30.222 50.7729 29.2587 51.1429 27.8836 51.5687C24.4772 52.6227 22.3482 53.9909 21.5455 55.6382C20.9871 56.79 21.2733 57.6765 21.3361 57.844C21.5176 58.3186 21.9713 58.6258 22.4739 58.6258H54.7718C55.4488 58.6258 55.9933 58.0813 55.9933 57.4042C55.9933 56.9505 55.742 56.5596 55.3721 56.3432C55.2325 56.2106 55.0579 56.1059 54.8555 56.05L49.6901 54.661C49.0409 54.4865 48.3708 54.8704 48.1963 55.5196C48.1335 55.7429 48.1474 55.9732 48.2103 56.1757H24.1212C24.7285 55.5405 26.0268 54.6889 28.6026 53.8931C31.4296 53.0206 32.707 52.3435 33.4679 51.9456C33.6284 51.8618 33.8099 51.7641 33.9006 51.7292C34.0821 51.7711 34.5428 51.9805 35.0245 52.1899L35.4014 52.3575C39.0661 53.9769 42.7098 54.9681 43.7359 55.2334C44.392 55.4009 45.0552 55.01 45.2227 54.3608C45.3902 53.7047 44.9993 53.0415 44.3502 52.874C43.5195 52.6576 40.8949 51.9456 37.9911 50.7939C39.9107 50.1866 41.5161 48.9441 42.7726 47.0455C44.2943 44.742 46.2069 42.5501 48.1684 40.5817C49.4318 41.2239 51.2258 41.8312 53.0825 41.8312C54.9393 41.8312 56.817 41.2379 58.2898 39.5067C58.7296 38.9902 58.6668 38.2223 58.1502 37.7826C57.6337 37.3428 56.8658 37.4057 56.4261 37.9222C54.5623 40.114 51.6934 39.409 50.074 38.7529C54.5065 34.6694 58.6598 31.9261 58.7226 31.8842C59.288 31.5143 59.4416 30.7604 59.0786 30.195C58.7087 29.6296 57.9548 29.469 57.3894 29.839L57.4103 29.8809Z" fill="#332D17"/>
<path d="M49.4733 12.8978C52.2026 12.8978 54.4153 10.6781 54.4153 7.95574C54.4153 5.23342 52.1956 3.01367 49.4733 3.01367C46.751 3.01367 44.5312 5.23342 44.5312 7.95574C44.5312 10.6781 46.751 12.8978 49.4733 12.8978ZM49.4733 5.44979C50.8554 5.44979 51.9722 6.57363 51.9722 7.94875C51.9722 9.32388 50.8484 10.4477 49.4733 10.4477C48.0982 10.4477 46.9744 9.32388 46.9744 7.94875C46.9744 6.57363 48.0982 5.44979 49.4733 5.44979Z" fill="#332D17"/>
<path d="M57.3823 22.9071C58.8279 22.9071 59.9999 21.7352 59.9999 20.2895C59.9999 18.8438 58.8279 17.6719 57.3823 17.6719C55.9366 17.6719 54.7646 18.8438 54.7646 20.2895C54.7646 21.7352 55.9366 22.9071 57.3823 22.9071Z" fill="#332D17"/>
<path d="M18.1948 56.2031H5.9862C5.30911 56.2031 4.76465 56.7476 4.76465 57.4247C4.76465 58.1018 5.30911 58.6462 5.9862 58.6462H18.1948C18.8718 58.6462 19.4163 58.1018 19.4163 57.4247C19.4163 56.7476 18.8718 56.2031 18.1948 56.2031Z" fill="#332D17"/>
</svg>
