<svg width="51" height="50" viewBox="0 0 51 50" fill="none" xmlns="http://www.w3.org/2000/svg">
<g clip-path="url(#clip0_976_2133)">
<path d="M40.4619 0.449138C39.8955 0.654216 39.3096 1.26945 39.1143 1.85539C38.9776 2.25578 38.958 2.6757 38.9873 4.16984C39.0166 6.18156 39.085 6.455 39.7198 7.0507C40.335 7.63664 40.4815 7.66594 43.9287 7.69523C46.0186 7.71476 47.2588 7.68547 47.6202 7.61711C48.3037 7.47062 48.8897 7.0214 49.2119 6.3964C49.4561 5.92765 49.4659 5.85929 49.4659 3.955C49.4659 2.12883 49.4561 1.97258 49.251 1.60148C48.9776 1.0839 48.3623 0.55656 47.8643 0.410075C47.2686 0.224528 40.9893 0.263591 40.4619 0.449138Z" fill="#151009" fill-opacity="0.6"/>
<path d="M11.2339 8.26164C9.54443 8.50578 8.39209 8.83781 7.21045 9.42375C3.59717 11.2402 1.04834 14.6972 0.35498 18.7402C0.149902 19.9413 0.149902 22.1386 0.35498 23.3495C1.07764 27.6562 3.9585 31.3476 7.86475 32.9589C11.605 34.5116 15.9897 33.9843 19.2319 31.5917C20.0132 31.0155 20.3452 30.8593 20.8823 30.8007C21.4976 30.7323 21.9565 30.9081 22.9038 31.5917C26.7124 34.3261 31.8296 34.58 35.7261 32.2362C38.8999 30.3319 40.9995 27.2851 41.771 23.4862C42.0054 22.2851 42.0054 19.7362 41.771 18.5253C40.6968 13.1444 36.6538 9.11125 31.5464 8.33976C30.7847 8.23234 28.9097 8.20304 21.0483 8.21281C15.7847 8.22258 11.3706 8.24211 11.2339 8.26164ZM31.5366 12.7734C34.6909 13.6132 37.064 16.0155 37.8062 19.1112C38.0796 20.2734 38.0308 22.3437 37.6987 23.3886C37.1909 24.9902 36.1851 26.5038 34.9351 27.539C34.144 28.1933 32.6108 29.0038 31.644 29.2675C30.7456 29.5116 28.3335 29.5116 27.4448 29.2577C26.5562 29.0136 25.3745 28.4472 24.4761 27.8319C23.3921 27.0898 22.6499 26.8359 21.3901 26.7773C19.7495 26.7089 18.939 26.9628 17.2983 28.0566C15.7456 29.1015 14.1147 29.5507 12.1714 29.4628C9.94482 29.3749 8.09912 28.5351 6.49756 26.8944C3.11865 23.4374 3.38232 17.8222 7.06396 14.6679C8.3042 13.5937 10.0327 12.8124 11.605 12.6073C11.9663 12.5585 16.4097 12.5292 21.4878 12.539C30.687 12.5585 30.7163 12.5585 31.5366 12.7734Z" fill="#151009" fill-opacity="0.6"/>
<path d="M11.8691 14.1602C10.2871 14.3359 8.72459 15.1172 7.57225 16.3184C4.6035 19.4238 5.21873 24.4727 8.85155 26.8555C10.7558 28.1055 13.4414 28.2812 15.5215 27.2949C15.9219 27.0996 16.4687 26.7871 16.7324 26.6016C18.041 25.6543 19.4863 25.1855 21.0781 25.1855C22.6894 25.1855 23.8711 25.5664 25.3457 26.5625C26.7812 27.5293 28.0117 27.9297 29.5742 27.9297C32.2109 27.9297 34.5449 26.4844 35.7461 24.1016C36.293 23.0078 36.459 22.1289 36.4101 20.6738C36.3711 19.6973 36.3125 19.3555 36.0879 18.75C35.1504 16.1816 33.0019 14.4727 30.3164 14.1602C29.3105 14.0527 12.9433 14.043 11.8691 14.1602Z" fill="#151009" fill-opacity="0.6"/>
<path d="M40.9219 9.29687C40.5312 9.44336 40.4336 9.75586 40.4336 10.8398V11.8652L40.9805 12.6855C41.5176 13.4863 42.4844 15.3027 42.4844 15.5078C42.4844 15.5664 42.6016 15.7031 42.7383 15.8105C42.9824 16.0059 43.1191 16.0156 45.2285 16.0156C47.4355 16.0156 47.4551 16.0156 47.7285 15.7812L48.002 15.5469L48.0312 12.7539C48.0605 9.73633 48.0215 9.43359 47.5332 9.32617C47.1914 9.25781 41.127 9.21875 40.9219 9.29687Z" fill="#151009" fill-opacity="0.6"/>
<path d="M43.7925 17.6953C43.3726 17.8906 43.3238 18.1445 43.4605 19.4824C43.607 20.957 43.5386 22.5977 43.2652 23.9258C43.021 25.127 43.021 25.1562 43.3531 25.498L43.6363 25.7812H45.6285C47.8843 25.7812 48.2456 25.7129 48.9195 25.1367C49.7691 24.4043 50.1988 23.2715 50.1988 21.748C50.1988 20.1953 49.8374 19.1602 49.0171 18.3398C48.3531 17.6758 47.9331 17.5781 45.7652 17.5879C44.7593 17.5879 43.9097 17.6367 43.7925 17.6953Z" fill="#151009" fill-opacity="0.6"/>
<path d="M42.2296 27.4805C42.1124 27.5683 41.878 27.8711 41.7218 28.1641C41.5557 28.4473 41.2042 29.0137 40.9405 29.4238C40.4815 30.1172 40.462 30.1953 40.4034 31.0156C40.2374 33.3398 39.1534 35.5957 37.4249 37.2168C37.0636 37.5586 36.5167 38.0078 36.2042 38.2129C35.5108 38.6719 34.1925 39.2969 33.5968 39.4531C33.3526 39.5117 32.9913 39.6094 32.796 39.6582C32.0636 39.8437 31.878 40.3516 32.1905 41.2207C32.6202 42.4121 32.7276 43.9551 32.4639 45.166C32.1807 46.5137 32.1807 46.7383 32.4542 47.0117C32.8448 47.4023 33.6358 47.3437 35.6475 46.7676C38.4112 45.9766 40.7354 44.6191 42.8546 42.5391C46.4483 39.0332 48.1573 34.6289 48.0303 29.209C47.9913 27.2558 48.2257 27.4023 44.9932 27.3633C42.835 27.3437 42.4053 27.3633 42.2296 27.4805Z" fill="#151009" fill-opacity="0.6"/>
<path d="M20.0723 32.8906C19.6426 33.1934 18.959 33.6231 18.5586 33.8281C17.5918 34.3262 17.3867 34.5215 17.3867 34.9317C17.3867 35.4102 17.5332 35.6152 18.0605 35.8789C18.9102 36.3086 19.6719 36.4649 21.0488 36.4649C22.4355 36.4746 23.0312 36.3672 24.0078 35.9277C24.7012 35.6152 24.8867 35.332 24.7402 34.7656C24.6719 34.4727 24.5547 34.375 23.6562 33.8672C23.0996 33.5645 22.416 33.1348 22.1426 32.9297C21.5176 32.4707 21.2637 32.3242 21.0293 32.3242C20.9316 32.3242 20.502 32.5781 20.0723 32.8906Z" fill="#151009" fill-opacity="0.6"/>
<path d="M24.8371 37.9785C24.5539 38.0761 24.1535 38.2715 23.9386 38.4179C23.4797 38.7402 22.9133 39.5312 22.757 40.0879C22.6105 40.5859 22.6691 41.6211 22.8937 42.5781C23.0988 43.4277 23.0597 44.5508 22.7961 45.4004C22.5812 46.1425 22.6398 47.2656 22.9328 47.8711C23.4211 48.8672 24.4562 49.58 25.589 49.6777C26.7609 49.7851 28.2648 49.082 29.3976 47.8906C31.6144 45.5566 31.6144 41.9433 29.3976 39.6093C27.9816 38.125 26.2238 37.5 24.8371 37.9785Z" fill="#151009" fill-opacity="0.6"/>
</g>
<defs>
<clipPath id="clip0_976_2133">
<rect width="50" height="50" fill="white" transform="translate(0.199219)"/>
</clipPath>
</defs>
</svg>
