<svg width="60" height="62" viewBox="0 0 60 62" fill="none" xmlns="http://www.w3.org/2000/svg">
<path d="M59.9307 43.9653C59.9157 43.2532 59.3311 42.6836 58.6191 42.6836H1.61851C1.14632 42.6836 0.711598 42.9309 0.479248 43.3432C0.246899 43.7554 0.254394 44.2576 0.494238 44.6623C0.898976 45.3369 10.4553 61.2116 20.7611 61.2116H54.4742C54.5267 61.2116 54.6241 61.2116 54.7441 61.2116C56.7453 61.2116 59.0838 60.3571 59.6609 57.9662C60.1706 55.8376 59.9607 45.1645 59.9382 43.9578L59.9307 43.9653ZM57.105 57.3591C56.8352 58.4758 55.3587 58.5958 54.7366 58.5958C54.6616 58.5958 54.6092 58.5958 54.6017 58.5958C54.5717 58.5958 54.5417 58.5958 54.5042 58.5958H20.7536C13.8956 58.5958 6.85761 49.4442 4.03195 45.3069H57.3374C57.4123 49.789 57.4048 56.1299 57.105 57.3666V57.3591Z" fill="#332D17"/>
<path d="M1.31127 40.856C1.50614 40.856 1.69352 40.8111 1.8809 40.7286C1.98583 40.6761 12.6064 35.6394 20.6862 35.6394C29.6804 35.6394 38.817 40.6012 38.9069 40.6462C39.3116 40.871 39.8063 40.8635 40.2036 40.6237C40.6008 40.3838 40.8481 39.9566 40.8481 39.4919V1.31165C40.8481 0.584621 40.2635 0 39.5365 0C22.6424 0 1.07892 37.2958 0.172007 38.8848C-0.112808 39.387 -0.0378569 40.0091 0.35189 40.4288C0.606725 40.7061 0.958997 40.8485 1.31127 40.8485V40.856ZM38.2248 2.71324V37.3783C34.9195 35.8343 27.8741 33.0161 20.6862 33.0161C15.0649 33.0161 8.55907 35.1672 4.54167 36.7412C10.133 27.762 25.8354 4.3172 38.2248 2.72073V2.71324Z" fill="#332D17"/>
<path d="M44.6486 24.2534C44.6486 35.3237 42.7524 38.8165 42.7374 38.8389C42.4451 39.3336 42.5125 39.9632 42.9023 40.3904C43.292 40.8177 43.9141 40.9376 44.4313 40.6902C44.4762 40.6678 48.9658 38.5541 52.2712 38.5541C55.0369 38.5541 57.7576 40.5553 57.8026 40.5853C58.0349 40.7577 58.3123 40.8476 58.5896 40.8476C58.8519 40.8476 59.1068 40.7727 59.3316 40.6153C59.7963 40.293 60.0062 39.7159 59.8488 39.1762C57.8026 32.0708 50.6148 8.88086 43.8691 8.88086C43.4494 8.88086 43.0522 9.08323 42.8123 9.42051C42.565 9.75779 42.4975 10.2 42.6249 10.5972C43.5393 13.4229 44.6486 20.281 44.6486 24.2534ZM56.4235 36.8452C55.2318 36.3506 53.7852 35.9308 52.2712 35.9308C50.1875 35.9308 47.8266 36.5904 46.0502 37.2125C46.6498 34.8141 47.2719 30.7442 47.2719 24.2459C47.2719 21.0455 46.6273 16.3085 45.8928 12.8308C49.0108 16.3985 53.253 26.5919 56.4235 36.8377V36.8452Z" fill="#332D17"/>
<path d="M19.382 47.5566C16.991 47.5566 15.0498 49.4979 15.0498 51.8888C15.0498 54.2798 16.991 56.221 19.382 56.221C21.7729 56.221 23.7142 54.2798 23.7142 51.8888C23.7142 49.4979 21.7729 47.5566 19.382 47.5566ZM19.382 53.5902C18.4376 53.5902 17.6731 52.8257 17.6731 51.8813C17.6731 50.9369 18.4376 50.1724 19.382 50.1724C20.3264 50.1724 21.0909 50.9369 21.0909 51.8813C21.0909 52.8257 20.3264 53.5902 19.382 53.5902Z" fill="#332D17"/>
</svg>
