<svg width="60" height="39" viewBox="0 0 60 39" fill="none" xmlns="http://www.w3.org/2000/svg">
<path d="M58.7711 0.212891H1.22893C0.547753 0.212891 0 0.760643 0 1.44182V37.7691C0 38.4502 0.547753 38.998 1.22893 38.998H58.7711C59.4522 38.998 60 38.4502 60 37.7691V1.44182C60 0.760643 59.4522 0.212891 58.7711 0.212891ZM57.5421 36.5401H2.45786V2.67076H57.5421V36.5401Z" fill="#332D17"/>
<path d="M29.9994 33.6176C30.6806 33.6176 31.2284 33.0699 31.2284 32.3887V6.18792C31.2284 5.50674 30.6806 4.95898 29.9994 4.95898C29.3183 4.95898 28.7705 5.50674 28.7705 6.18792V32.3887C28.7705 33.0699 29.3183 33.6176 29.9994 33.6176Z" fill="#332D17"/>
<path d="M6.3344 8.38755H13.4412C14.1223 8.38755 14.6701 7.8398 14.6701 7.15862C14.6701 6.47744 14.1223 5.92969 13.4412 5.92969H6.3344C5.65322 5.92969 5.10547 6.47744 5.10547 7.15862C5.10547 7.8398 5.65322 8.38755 6.3344 8.38755Z" fill="#332D17"/>
<path d="M6.3344 13.3036H17.6546C18.3358 13.3036 18.8836 12.7558 18.8836 12.0746C18.8836 11.3935 18.3358 10.8457 17.6546 10.8457H6.3344C5.65322 10.8457 5.10547 11.3935 5.10547 12.0746C5.10547 12.7558 5.65322 13.3036 6.3344 13.3036Z" fill="#332D17"/>
<path d="M6.3344 18.2196H24.2206C24.9018 18.2196 25.4496 17.6718 25.4496 16.9907C25.4496 16.3095 24.9018 15.7617 24.2206 15.7617H6.3344C5.65322 15.7617 5.10547 16.3095 5.10547 16.9907C5.10547 17.6718 5.65322 18.2196 6.3344 18.2196Z" fill="#332D17"/>
<path d="M6.3344 23.1356H24.2206C24.9018 23.1356 25.4496 22.5878 25.4496 21.9067C25.4496 21.2255 24.9018 20.6777 24.2206 20.6777H6.3344C5.65322 20.6777 5.10547 21.2255 5.10547 21.9067C5.10547 22.5878 5.65322 23.1356 6.3344 23.1356Z" fill="#332D17"/>
<path d="M6.3344 28.0497H24.2206C24.9018 28.0497 25.4496 27.5019 25.4496 26.8207C25.4496 26.1395 24.9018 25.5918 24.2206 25.5918H6.3344C5.65322 25.5918 5.10547 26.1395 5.10547 26.8207C5.10547 27.5019 5.65322 28.0497 6.3344 28.0497Z" fill="#332D17"/>
<path d="M24.3122 30.5078H20.5903C19.9091 30.5078 19.3613 31.0556 19.3613 31.7367C19.3613 32.4179 19.9091 32.9657 20.5903 32.9657H24.3122C24.9933 32.9657 25.5411 32.4179 25.5411 31.7367C25.5411 31.0556 24.9933 30.5078 24.3122 30.5078Z" fill="#332D17"/>
<path d="M47.4994 15.9015H55.2242C55.9053 15.9015 56.4531 15.3538 56.4531 14.6726V5.54339C56.4531 4.86221 55.9053 4.31445 55.2242 4.31445H47.4994C46.8183 4.31445 46.2705 4.86221 46.2705 5.54339V14.6726C46.2705 15.3538 46.8183 15.9015 47.4994 15.9015ZM48.7284 6.77232H53.9952V13.4437H48.7284V6.77232Z" fill="#332D17"/>
<path d="M36.8255 9.77812C36.8746 9.77812 36.9308 9.77812 36.98 9.77812C37.7103 9.77812 38.7426 9.54635 39.7609 8.52107C40.1401 8.14186 40.7019 7.72052 41.2567 7.83288C41.6499 7.91013 42.0221 8.2683 42.2117 8.73178C42.4645 9.3638 43.1808 9.66574 43.8129 9.40591C44.4449 9.1531 44.7468 8.43679 44.487 7.80477C43.9814 6.56179 42.9561 5.66992 41.7412 5.42414C41.0039 5.27667 39.5502 5.25564 38.0193 6.77951C37.4645 7.33429 37.0642 7.32025 36.9378 7.31323C36.3198 7.29216 35.7159 6.73036 35.5333 6.51968C35.0979 6.00002 34.3255 5.92982 33.8058 6.36521C33.2862 6.8006 33.2089 7.57305 33.6443 8.09271C33.7777 8.25423 35.0137 9.67979 36.8114 9.76406L36.8255 9.77812Z" fill="#332D17"/>
<path d="M37.1278 13.9907C38.0197 13.9907 38.9396 13.6747 39.7612 12.8531C40.1404 12.4739 40.6952 12.0526 41.257 12.1649C41.6503 12.2422 42.0225 12.6002 42.2121 13.0637C42.4649 13.6887 43.1812 13.9978 43.8132 13.7379C44.4452 13.4851 44.7472 12.7688 44.4873 12.1368C43.9817 10.8938 42.9565 10.002 41.7416 9.75617C41.0042 9.6087 39.5506 9.58767 38.0197 11.1115C37.0014 12.1368 35.7022 10.9992 35.4494 10.7604C34.9649 10.2899 34.1854 10.3039 33.7149 10.7885C33.2444 11.273 33.2514 12.0525 33.7359 12.523C34.5084 13.2814 35.7865 13.9907 37.1208 13.9907H37.1278Z" fill="#332D17"/>
</svg>
