<svg width="61" height="52" viewBox="0 0 61 52" fill="none" xmlns="http://www.w3.org/2000/svg">
<path d="M1.23127 41.8451L5.21128 45.9207C5.42814 46.144 5.72154 46.2588 6.00856 46.2588C6.29558 46.2588 6.56982 46.1504 6.78668 45.9399C7.22678 45.5062 7.23318 44.8046 6.80583 44.3581L3.56568 41.0414L8.22178 36.9402C8.68739 36.532 8.73206 35.8304 8.32386 35.3648C7.91565 34.8992 7.20765 34.8609 6.74841 35.2627L1.19939 40.1484C0.733775 40.5566 0.689105 41.2583 1.09731 41.7239C1.13558 41.7685 1.18024 41.8004 1.22488 41.8387L1.23127 41.8451Z" fill="#332D17"/>
<path d="M53.437 45.9417C53.6538 46.1522 53.9345 46.2606 54.2151 46.2606C54.4958 46.2606 54.7955 46.1458 55.0124 45.9226L58.9605 41.8788C59.0307 41.8278 59.0881 41.7703 59.1455 41.7002C59.5346 41.2218 59.4644 40.5202 58.986 40.1312L56.2242 37.886C55.7459 37.4969 55.0443 37.5671 54.6552 38.0455C54.2661 38.5238 54.3363 39.2255 54.8147 39.6145L56.6197 41.0815L53.4178 44.3663C52.9841 44.8064 52.9969 45.5144 53.437 45.9417Z" fill="#332D17"/>
<path d="M47.9078 33.9939L52.0536 37.368C52.2577 37.5339 52.5065 37.6168 52.7552 37.6168C53.0805 37.6168 53.3994 37.4764 53.6227 37.2022C54.0117 36.7238 53.9416 36.0222 53.4632 35.6331L49.3174 32.2591C48.839 31.87 48.1374 31.9401 47.7483 32.4185C47.3592 32.8969 47.4294 33.5985 47.9078 33.9876V33.9939Z" fill="#332D17"/>
<path d="M2.1181 7.02071C2.40512 7.02071 2.69214 6.91229 2.909 6.69543L6.7742 2.83023L10.6394 6.68905C10.8563 6.90591 11.1433 7.01434 11.4303 7.01434C11.7173 7.01434 12.0043 6.90591 12.2212 6.68905C12.6549 6.25533 12.6549 5.54734 12.2212 5.11362L7.66078 0.553194C7.41841 0.310822 7.0995 0.20877 6.78059 0.234283C6.46805 0.20877 6.14276 0.310822 5.90039 0.553194L1.33994 5.11362C0.906219 5.54734 0.906219 6.25533 1.33994 6.69543C1.5568 6.91229 1.84381 7.02071 2.13083 7.02071H2.1181Z" fill="#332D17"/>
<path d="M11.4244 13.1569C11.7115 13.1569 11.9985 13.0485 12.2153 12.8316C12.6491 12.3979 12.6491 11.6899 12.2153 11.2562L7.65492 6.69577C7.41255 6.4534 7.09364 6.35135 6.77473 6.37686C6.46219 6.35135 6.1369 6.4534 5.89453 6.69577L1.33408 11.2562C0.900359 11.6899 0.900359 12.3979 1.33408 12.8316C1.55094 13.0485 1.83795 13.1569 2.12497 13.1569C2.41199 13.1569 2.69905 13.0485 2.91591 12.8316L6.78111 8.96642L10.6463 12.8316C10.8632 13.0485 11.1502 13.1569 11.4372 13.1569H11.4244Z" fill="#332D17"/>
<path d="M5.47949 13.0537V18.8324C5.47949 19.4511 5.97699 19.9486 6.59568 19.9486C7.21437 19.9486 7.71187 19.4511 7.71187 18.8324V13.0537C7.71187 12.435 7.21437 11.9375 6.59568 11.9375C5.97699 11.9375 5.47949 12.435 5.47949 13.0537Z" fill="#332D17"/>
<path d="M17.6811 7.02071C17.9681 7.02071 18.2551 6.91229 18.472 6.69543L22.3308 2.83659L26.196 6.69543C26.4129 6.91229 26.6999 7.02071 26.9869 7.02071C27.274 7.02071 27.561 6.91229 27.7778 6.69543C28.2116 6.26171 28.2116 5.55372 27.7778 5.11362L23.2174 0.553194C22.975 0.310822 22.6561 0.20877 22.3372 0.234283C22.0247 0.20877 21.6994 0.310822 21.457 0.553194L16.8966 5.11362C16.4629 5.54734 16.4629 6.25533 16.8966 6.68905C17.1134 6.90591 17.4005 7.01434 17.6875 7.01434L17.6811 7.02071Z" fill="#332D17"/>
<path d="M17.6808 13.1555C17.9678 13.1555 18.2549 13.0471 18.4717 12.8302L22.3369 8.96499L26.2021 12.8302C26.2021 12.8302 26.2404 12.8557 26.2532 12.8748L6.30843 41.5259C5.95762 42.0297 6.07881 42.725 6.58907 43.0822C7.09295 43.433 7.78818 43.3118 8.14536 42.8015L29.8633 11.6056L50.7392 43.5414C50.956 43.8667 51.3132 44.0452 51.6768 44.0452C51.8872 44.0452 52.0977 43.9878 52.2891 43.8603C52.8057 43.5222 52.9524 42.8334 52.6144 42.3168L33.62 13.2575L37.9189 8.95861L41.7842 12.8238C42.001 13.0407 42.288 13.1491 42.5751 13.1491C42.8621 13.1491 43.1491 13.0407 43.366 12.8238C43.7997 12.3901 43.7997 11.6821 43.366 11.2484L38.8055 6.68796C38.5631 6.44559 38.2442 6.34354 37.9253 6.36905C37.6128 6.34354 37.2875 6.44559 37.0451 6.68796L32.3763 11.3568L30.8391 9.00326C30.635 8.69073 30.2906 8.50575 29.9206 8.49937C29.5635 8.49937 29.1999 8.67159 28.9894 8.97774L27.5671 11.0188L23.2363 6.69434C22.9939 6.45197 22.675 6.34992 22.3561 6.37543C22.0435 6.34992 21.7182 6.45197 21.4759 6.69434L16.9154 11.2548C16.4817 11.6885 16.4817 12.3965 16.9154 12.8302C17.1323 13.0471 17.4193 13.1555 17.7064 13.1555H17.6808Z" fill="#332D17"/>
<path d="M48.8065 7.02071C49.0936 7.02071 49.3806 6.91229 49.5975 6.69543L53.4627 2.83659L57.3279 6.69543C57.5447 6.91229 57.8318 7.02071 58.1188 7.02071C58.4058 7.02071 58.6928 6.91229 58.9097 6.69543C59.3434 6.26171 59.3434 5.55372 58.9097 5.11362L54.3492 0.553194C54.1068 0.310822 53.7879 0.20877 53.469 0.234283C53.1565 0.20877 52.8312 0.310822 52.5888 0.553194L48.0284 5.11362C47.5947 5.54734 47.5947 6.25533 48.0284 6.69543C48.2453 6.91229 48.5323 7.02071 48.8193 7.02071H48.8065Z" fill="#332D17"/>
<path d="M57.321 12.8316C57.5379 13.0485 57.8249 13.1569 58.1119 13.1569C58.399 13.1569 58.686 13.0485 58.9028 12.8316C59.3366 12.3979 59.3366 11.6899 58.9028 11.2562L54.3424 6.69577C54.1 6.4534 53.7811 6.35135 53.4622 6.37686C53.1497 6.35135 52.8244 6.4534 52.582 6.69577L48.0216 11.2562C47.5879 11.6899 47.5879 12.3979 48.0216 12.8316C48.2384 13.0485 48.5255 13.1569 48.8125 13.1569C49.0995 13.1569 49.3865 13.0485 49.6034 12.8316L53.4686 8.96642L57.3338 12.8316H57.321Z" fill="#332D17"/>
<path d="M53.6347 19.9486C54.2534 19.9486 54.7509 19.4511 54.7509 18.8324V13.0537C54.7509 12.435 54.2534 11.9375 53.6347 11.9375C53.0161 11.9375 52.5186 12.435 52.5186 13.0537V18.8324C52.5186 19.4511 53.0161 19.9486 53.6347 19.9486Z" fill="#332D17"/>
<path d="M33.2436 7.02018C33.5306 7.02018 33.8177 6.91177 34.0345 6.69491L37.8997 2.83607L41.7585 6.69491C41.9754 6.91177 42.2624 7.02018 42.5494 7.02018C42.8365 7.02018 43.1235 6.91177 43.3403 6.69491C43.7741 6.26119 43.7741 5.5532 43.3403 5.11948L38.7799 0.559054C38.5376 0.316681 38.2186 0.214629 37.8997 0.240142C37.5872 0.214629 37.2619 0.316681 37.0195 0.559054L32.4591 5.11948C32.0254 5.5532 32.0254 6.26117 32.4591 6.70127C32.6759 6.91813 32.963 7.02657 33.25 7.02657L33.2436 7.02018Z" fill="#332D17"/>
<path d="M58.999 49.5391H1.23142C0.612736 49.5391 0.115234 50.0366 0.115234 50.6553C0.115234 51.2739 0.612736 51.7714 1.23142 51.7714H58.999C59.6177 51.7714 60.1152 51.2739 60.1152 50.6553C60.1152 50.0366 59.6177 49.5391 58.999 49.5391Z" fill="#332D17"/>
<path d="M30.7056 21.876C30.7056 21.2573 30.2081 20.7598 29.5894 20.7598C29.5767 20.7598 29.5639 20.7598 29.5512 20.7598C29.5384 20.7598 29.5257 20.7598 29.5129 20.7598C28.8942 20.7598 28.3967 21.2573 28.3967 21.876C28.3967 30.3462 14.6134 41.8972 14.4731 42.012C14.0011 42.4075 13.9309 43.1091 14.3263 43.5811C14.5496 43.849 14.8621 43.9829 15.1874 43.9829C15.4362 43.9829 15.6913 43.9 15.9018 43.7278C16.3993 43.3132 26.2536 35.0534 29.5575 26.8127C32.8615 35.0534 42.7095 43.3132 43.2134 43.7278C43.4238 43.9 43.6726 43.9829 43.9277 43.9829C44.2466 43.9829 44.5655 43.8426 44.7888 43.5811C45.1842 43.1091 45.1204 42.4011 44.6421 42.012C44.5018 41.8972 30.7184 30.3462 30.7184 21.876H30.7056Z" fill="#332D17"/>
</svg>
